G04 ================== begin FILE IDENTIFICATION RECORD ==================*
G04 Layout Name:  SAMD21_MODULE_v2.brd*
G04 Film Name:    FAB*
G04 File Format:  Gerber RS274X*
G04 File Origin:  Cadence Allegro 16.6-S039*
G04 Origin Date:  Sat Apr 27 10:05:54 2019*
G04 *
G04 Layer:  MANUFACTURING/XSECTION_CHART*
G04 Layer:  MANUFACTURING/NCLEGEND-1-2*
G04 Layer:  BOARD GEOMETRY/OUTLINE*
G04 Layer:  BOARD GEOMETRY/DIMENSION*
G04 *
G04 Offset:    (0.0000 0.0000)*
G04 Mirror:    No*
G04 Mode:      Positive*
G04 Rotation:  0*
G04 FullContactRelief:  No*
G04 UndefLineWidth:     0.0010*
G04 ================== end FILE IDENTIFICATION RECORD ====================*
%FSLAX25Y25*MOMM*%
%IR0*IPPOS*OFA0.00000B0.00000*MIA0B0*SFA1.00000B1.00000*%
%AMMACRO12*
1,1,.001,.508,0.0*
20,1,.001,.508,0.0,.500282,-.088213,0.0*
1,1,.001,.500282,-.088213*
20,1,.001,.500282,-.088213,.477364,-.173746,0.0*
1,1,.001,.477364,-.173746*
20,1,.001,.477364,-.173746,.439941,-.254,0.0*
1,1,.001,.439941,-.254*
20,1,.001,.439941,-.254,.389151,-.326536,0.0*
1,1,.001,.389151,-.326536*
20,1,.001,.389151,-.326536,.326536,-.389151,0.0*
1,1,.001,.326536,-.389151*
20,1,.001,.326536,-.389151,.254,-.439941,0.0*
1,1,.001,.254,-.439941*
20,1,.001,.254,-.439941,.173746,-.477364,0.0*
1,1,.001,.173746,-.477364*
20,1,.001,.173746,-.477364,.088213,-.500282,0.0*
1,1,.001,.088213,-.500282*
20,1,.001,.088213,-.500282,0.0,-.508,0.0*
1,1,.001,0.0,-.508*
20,1,.001,0.0,-.508,-.088213,-.500282,0.0*
1,1,.001,-.088213,-.500282*
20,1,.001,-.088213,-.500282,-.173746,-.477364,0.0*
1,1,.001,-.173746,-.477364*
20,1,.001,-.173746,-.477364,-.254,-.439941,0.0*
1,1,.001,-.254,-.439941*
20,1,.001,-.254,-.439941,-.326536,-.389151,0.0*
1,1,.001,-.326536,-.389151*
20,1,.001,-.326536,-.389151,-.389151,-.326536,0.0*
1,1,.001,-.389151,-.326536*
20,1,.001,-.389151,-.326536,-.439941,-.254,0.0*
1,1,.001,-.439941,-.254*
20,1,.001,-.439941,-.254,-.477364,-.173746,0.0*
1,1,.001,-.477364,-.173746*
20,1,.001,-.477364,-.173746,-.500282,-.088213,0.0*
1,1,.001,-.500282,-.088213*
20,1,.001,-.500282,-.088213,-.508,0.0,0.0*
1,1,.001,-.508,0.0*
20,1,.001,-.508,0.0,-.500282,.088213,0.0*
1,1,.001,-.500282,.088213*
20,1,.001,-.500282,.088213,-.477364,.173746,0.0*
1,1,.001,-.477364,.173746*
20,1,.001,-.477364,.173746,-.439941,.254,0.0*
1,1,.001,-.439941,.254*
20,1,.001,-.439941,.254,-.389151,.326536,0.0*
1,1,.001,-.389151,.326536*
20,1,.001,-.389151,.326536,-.326536,.389151,0.0*
1,1,.001,-.326536,.389151*
20,1,.001,-.326536,.389151,-.254,.439941,0.0*
1,1,.001,-.254,.439941*
20,1,.001,-.254,.439941,-.173746,.477364,0.0*
1,1,.001,-.173746,.477364*
20,1,.001,-.173746,.477364,-.088213,.500282,0.0*
1,1,.001,-.088213,.500282*
20,1,.001,-.088213,.500282,0.0,.508,0.0*
1,1,.001,0.0,.508*
20,1,.001,0.0,.508,.088213,.500282,0.0*
1,1,.001,.088213,.500282*
20,1,.001,.088213,.500282,.173746,.477364,0.0*
1,1,.001,.173746,.477364*
20,1,.001,.173746,.477364,.254,.439941,0.0*
1,1,.001,.254,.439941*
20,1,.001,.254,.439941,.326536,.389151,0.0*
1,1,.001,.326536,.389151*
20,1,.001,.326536,.389151,.389151,.326536,0.0*
1,1,.001,.389151,.326536*
20,1,.001,.389151,.326536,.439941,.254,0.0*
1,1,.001,.439941,.254*
20,1,.001,.439941,.254,.477364,.173746,0.0*
1,1,.001,.477364,.173746*
20,1,.001,.477364,.173746,.500282,.088213,0.0*
1,1,.001,.500282,.088213*
20,1,.001,.500282,.088213,.508,0.0,0.0*
1,1,.001,.508,0.0*
1,1,.001,-.254,-.0847*
20,1,.001,-.254,-.0847,-.1693,.0847,0.0*
1,1,.001,-.1693,.0847*
20,1,.001,-.1693,.0847,-.0847,.0847,0.0*
1,1,.001,-.0847,.0847*
20,1,.001,-.0847,.0847,.0847,-.254,0.0*
1,1,.001,.0847,-.254*
20,1,.001,.0847,-.254,.1693,-.254,0.0*
1,1,.001,.1693,-.254*
20,1,.001,.1693,-.254,.254,-.0847,0.0*
1,1,.001,.254,-.0847*
%
%ADD12MACRO12*%
%AMMACRO11*
1,1,.001,1.5621,0.0*
20,1,.001,1.5621,0.0,1.538368,-.271256,0.0*
1,1,.001,1.538368,-.271256*
20,1,.001,1.538368,-.271256,1.467894,-.53427,0.0*
1,1,.001,1.467894,-.53427*
20,1,.001,1.467894,-.53427,1.352818,-.78105,0.0*
1,1,.001,1.352818,-.78105*
20,1,.001,1.352818,-.78105,1.196638,-1.004099,0.0*
1,1,.001,1.196638,-1.004099*
20,1,.001,1.196638,-1.004099,1.004099,-1.196638,0.0*
1,1,.001,1.004099,-1.196638*
20,1,.001,1.004099,-1.196638,.78105,-1.352818,0.0*
1,1,.001,.78105,-1.352818*
20,1,.001,.78105,-1.352818,.53427,-1.467894,0.0*
1,1,.001,.53427,-1.467894*
20,1,.001,.53427,-1.467894,.271256,-1.538368,0.0*
1,1,.001,.271256,-1.538368*
20,1,.001,.271256,-1.538368,0.0,-1.5621,0.0*
1,1,.001,0.0,-1.5621*
20,1,.001,0.0,-1.5621,-.271256,-1.538368,0.0*
1,1,.001,-.271256,-1.538368*
20,1,.001,-.271256,-1.538368,-.53427,-1.467894,0.0*
1,1,.001,-.53427,-1.467894*
20,1,.001,-.53427,-1.467894,-.78105,-1.352818,0.0*
1,1,.001,-.78105,-1.352818*
20,1,.001,-.78105,-1.352818,-1.004099,-1.196638,0.0*
1,1,.001,-1.004099,-1.196638*
20,1,.001,-1.004099,-1.196638,-1.196638,-1.004099,0.0*
1,1,.001,-1.196638,-1.004099*
20,1,.001,-1.196638,-1.004099,-1.352818,-.78105,0.0*
1,1,.001,-1.352818,-.78105*
20,1,.001,-1.352818,-.78105,-1.467894,-.53427,0.0*
1,1,.001,-1.467894,-.53427*
20,1,.001,-1.467894,-.53427,-1.538368,-.271256,0.0*
1,1,.001,-1.538368,-.271256*
20,1,.001,-1.538368,-.271256,-1.5621,0.0,0.0*
1,1,.001,-1.5621,0.0*
20,1,.001,-1.5621,0.0,-1.538368,.271256,0.0*
1,1,.001,-1.538368,.271256*
20,1,.001,-1.538368,.271256,-1.467894,.53427,0.0*
1,1,.001,-1.467894,.53427*
20,1,.001,-1.467894,.53427,-1.352818,.78105,0.0*
1,1,.001,-1.352818,.78105*
20,1,.001,-1.352818,.78105,-1.196638,1.004099,0.0*
1,1,.001,-1.196638,1.004099*
20,1,.001,-1.196638,1.004099,-1.004099,1.196638,0.0*
1,1,.001,-1.004099,1.196638*
20,1,.001,-1.004099,1.196638,-.78105,1.352818,0.0*
1,1,.001,-.78105,1.352818*
20,1,.001,-.78105,1.352818,-.53427,1.467894,0.0*
1,1,.001,-.53427,1.467894*
20,1,.001,-.53427,1.467894,-.271256,1.538368,0.0*
1,1,.001,-.271256,1.538368*
20,1,.001,-.271256,1.538368,0.0,1.5621,0.0*
1,1,.001,0.0,1.5621*
20,1,.001,0.0,1.5621,.271256,1.538368,0.0*
1,1,.001,.271256,1.538368*
20,1,.001,.271256,1.538368,.53427,1.467894,0.0*
1,1,.001,.53427,1.467894*
20,1,.001,.53427,1.467894,.78105,1.352818,0.0*
1,1,.001,.78105,1.352818*
20,1,.001,.78105,1.352818,1.004099,1.196638,0.0*
1,1,.001,1.004099,1.196638*
20,1,.001,1.004099,1.196638,1.196638,1.004099,0.0*
1,1,.001,1.196638,1.004099*
20,1,.001,1.196638,1.004099,1.352818,.78105,0.0*
1,1,.001,1.352818,.78105*
20,1,.001,1.352818,.78105,1.467894,.53427,0.0*
1,1,.001,1.467894,.53427*
20,1,.001,1.467894,.53427,1.538368,.271256,0.0*
1,1,.001,1.538368,.271256*
20,1,.001,1.538368,.271256,1.5621,0.0,0.0*
1,1,.001,1.5621,0.0*
1,1,.001,-.5207,-1.3017*
20,1,.001,-.5207,-1.3017,0.0,.7811,0.0*
1,1,.001,0.0,.7811*
1,1,.001,.5208,.7811*
20,1,.001,.5208,.7811,0.0,-1.3017,0.0*
1,1,.001,0.0,-1.3017*
1,1,.001,-.781,-.5207*
20,1,.001,-.781,-.5207,.7811,-.5207,0.0*
1,1,.001,.7811,-.5207*
1,1,.001,.7811,0.0*
20,1,.001,.7811,0.0,-.781,0.0,0.0*
1,1,.001,-.781,0.0*
%
%ADD11MACRO11*%
%AMMACRO13*
1,1,.001,.635,0.0*
20,1,.001,.635,0.0,.625353,-.110267,0.0*
1,1,.001,.625353,-.110267*
20,1,.001,.625353,-.110267,.596705,-.217183,0.0*
1,1,.001,.596705,-.217183*
20,1,.001,.596705,-.217183,.549926,-.3175,0.0*
1,1,.001,.549926,-.3175*
20,1,.001,.549926,-.3175,.486438,-.40817,0.0*
1,1,.001,.486438,-.40817*
20,1,.001,.486438,-.40817,.40817,-.486438,0.0*
1,1,.001,.40817,-.486438*
20,1,.001,.40817,-.486438,.3175,-.549926,0.0*
1,1,.001,.3175,-.549926*
20,1,.001,.3175,-.549926,.217183,-.596705,0.0*
1,1,.001,.217183,-.596705*
20,1,.001,.217183,-.596705,.110267,-.625353,0.0*
1,1,.001,.110267,-.625353*
20,1,.001,.110267,-.625353,0.0,-.635,0.0*
1,1,.001,0.0,-.635*
20,1,.001,0.0,-.635,-.110267,-.625353,0.0*
1,1,.001,-.110267,-.625353*
20,1,.001,-.110267,-.625353,-.217183,-.596705,0.0*
1,1,.001,-.217183,-.596705*
20,1,.001,-.217183,-.596705,-.3175,-.549926,0.0*
1,1,.001,-.3175,-.549926*
20,1,.001,-.3175,-.549926,-.40817,-.486438,0.0*
1,1,.001,-.40817,-.486438*
20,1,.001,-.40817,-.486438,-.486438,-.40817,0.0*
1,1,.001,-.486438,-.40817*
20,1,.001,-.486438,-.40817,-.549926,-.3175,0.0*
1,1,.001,-.549926,-.3175*
20,1,.001,-.549926,-.3175,-.596705,-.217183,0.0*
1,1,.001,-.596705,-.217183*
20,1,.001,-.596705,-.217183,-.625353,-.110267,0.0*
1,1,.001,-.625353,-.110267*
20,1,.001,-.625353,-.110267,-.635,0.0,0.0*
1,1,.001,-.635,0.0*
20,1,.001,-.635,0.0,-.625353,.110267,0.0*
1,1,.001,-.625353,.110267*
20,1,.001,-.625353,.110267,-.596705,.217183,0.0*
1,1,.001,-.596705,.217183*
20,1,.001,-.596705,.217183,-.549926,.3175,0.0*
1,1,.001,-.549926,.3175*
20,1,.001,-.549926,.3175,-.486438,.40817,0.0*
1,1,.001,-.486438,.40817*
20,1,.001,-.486438,.40817,-.40817,.486438,0.0*
1,1,.001,-.40817,.486438*
20,1,.001,-.40817,.486438,-.3175,.549926,0.0*
1,1,.001,-.3175,.549926*
20,1,.001,-.3175,.549926,-.217183,.596705,0.0*
1,1,.001,-.217183,.596705*
20,1,.001,-.217183,.596705,-.110267,.625353,0.0*
1,1,.001,-.110267,.625353*
20,1,.001,-.110267,.625353,0.0,.635,0.0*
1,1,.001,0.0,.635*
20,1,.001,0.0,.635,.110267,.625353,0.0*
1,1,.001,.110267,.625353*
20,1,.001,.110267,.625353,.217183,.596705,0.0*
1,1,.001,.217183,.596705*
20,1,.001,.217183,.596705,.3175,.549926,0.0*
1,1,.001,.3175,.549926*
20,1,.001,.3175,.549926,.40817,.486438,0.0*
1,1,.001,.40817,.486438*
20,1,.001,.40817,.486438,.486438,.40817,0.0*
1,1,.001,.486438,.40817*
20,1,.001,.486438,.40817,.549926,.3175,0.0*
1,1,.001,.549926,.3175*
20,1,.001,.549926,.3175,.596705,.217183,0.0*
1,1,.001,.596705,.217183*
20,1,.001,.596705,.217183,.625353,.110267,0.0*
1,1,.001,.625353,.110267*
20,1,.001,.625353,.110267,.635,0.0,0.0*
1,1,.001,.635,0.0*
1,1,.001,.3175,0.0*
20,1,.001,.3175,0.0,-.3175,0.0,0.0*
1,1,.001,-.3175,0.0*
1,1,.001,0.0,.3175*
20,1,.001,0.0,.3175,0.0,-.3175,0.0*
1,1,.001,0.0,-.3175*
%
%ADD13MACRO13*%
%AMMACRO10*
1,1,.001,.381,0.0*
20,1,.001,.381,0.0,.375212,-.06616,0.0*
1,1,.001,.375212,-.06616*
20,1,.001,.375212,-.06616,.358023,-.13031,0.0*
1,1,.001,.358023,-.13031*
20,1,.001,.358023,-.13031,.329956,-.1905,0.0*
1,1,.001,.329956,-.1905*
20,1,.001,.329956,-.1905,.291863,-.244902,0.0*
1,1,.001,.291863,-.244902*
20,1,.001,.291863,-.244902,.244902,-.291863,0.0*
1,1,.001,.244902,-.291863*
20,1,.001,.244902,-.291863,.1905,-.329956,0.0*
1,1,.001,.1905,-.329956*
20,1,.001,.1905,-.329956,.13031,-.358023,0.0*
1,1,.001,.13031,-.358023*
20,1,.001,.13031,-.358023,.06616,-.375212,0.0*
1,1,.001,.06616,-.375212*
20,1,.001,.06616,-.375212,0.0,-.381,0.0*
1,1,.001,0.0,-.381*
20,1,.001,0.0,-.381,-.06616,-.375212,0.0*
1,1,.001,-.06616,-.375212*
20,1,.001,-.06616,-.375212,-.13031,-.358023,0.0*
1,1,.001,-.13031,-.358023*
20,1,.001,-.13031,-.358023,-.1905,-.329956,0.0*
1,1,.001,-.1905,-.329956*
20,1,.001,-.1905,-.329956,-.244902,-.291863,0.0*
1,1,.001,-.244902,-.291863*
20,1,.001,-.244902,-.291863,-.291863,-.244902,0.0*
1,1,.001,-.291863,-.244902*
20,1,.001,-.291863,-.244902,-.329956,-.1905,0.0*
1,1,.001,-.329956,-.1905*
20,1,.001,-.329956,-.1905,-.358023,-.13031,0.0*
1,1,.001,-.358023,-.13031*
20,1,.001,-.358023,-.13031,-.375212,-.06616,0.0*
1,1,.001,-.375212,-.06616*
20,1,.001,-.375212,-.06616,-.381,0.0,0.0*
1,1,.001,-.381,0.0*
20,1,.001,-.381,0.0,-.375212,.06616,0.0*
1,1,.001,-.375212,.06616*
20,1,.001,-.375212,.06616,-.358023,.13031,0.0*
1,1,.001,-.358023,.13031*
20,1,.001,-.358023,.13031,-.329956,.1905,0.0*
1,1,.001,-.329956,.1905*
20,1,.001,-.329956,.1905,-.291863,.244902,0.0*
1,1,.001,-.291863,.244902*
20,1,.001,-.291863,.244902,-.244902,.291863,0.0*
1,1,.001,-.244902,.291863*
20,1,.001,-.244902,.291863,-.1905,.329956,0.0*
1,1,.001,-.1905,.329956*
20,1,.001,-.1905,.329956,-.13031,.358023,0.0*
1,1,.001,-.13031,.358023*
20,1,.001,-.13031,.358023,-.06616,.375212,0.0*
1,1,.001,-.06616,.375212*
20,1,.001,-.06616,.375212,0.0,.381,0.0*
1,1,.001,0.0,.381*
20,1,.001,0.0,.381,.06616,.375212,0.0*
1,1,.001,.06616,.375212*
20,1,.001,.06616,.375212,.13031,.358023,0.0*
1,1,.001,.13031,.358023*
20,1,.001,.13031,.358023,.1905,.329956,0.0*
1,1,.001,.1905,.329956*
20,1,.001,.1905,.329956,.244902,.291863,0.0*
1,1,.001,.244902,.291863*
20,1,.001,.244902,.291863,.291863,.244902,0.0*
1,1,.001,.291863,.244902*
20,1,.001,.291863,.244902,.329956,.1905,0.0*
1,1,.001,.329956,.1905*
20,1,.001,.329956,.1905,.358023,.13031,0.0*
1,1,.001,.358023,.13031*
20,1,.001,.358023,.13031,.375212,.06616,0.0*
1,1,.001,.375212,.06616*
20,1,.001,.375212,.06616,.381,0.0,0.0*
1,1,.001,.381,0.0*
1,1,.001,-.1397,-.2032*
20,1,.001,-.1397,-.2032,.1397,.0762,0.0*
1,1,.001,.1397,.0762*
1,1,.001,0.0,.127*
20,1,.001,0.0,.127,0.0,-.254,0.0*
1,1,.001,0.0,-.254*
1,1,.001,.1397,-.2032*
20,1,.001,.1397,-.2032,-.1397,.0762,0.0*
1,1,.001,-.1397,.0762*
1,1,.001,-.1905,-.0635*
20,1,.001,-.1905,-.0635,.1905,-.0635,0.0*
1,1,.001,.1905,-.0635*
%
%ADD10MACRO10*%
%ADD14C,.1524*%
%ADD15C,.001*%
G75*
%LPD*%
G75*
G36*
G01X7680960Y7018270D02*
Y6432670D01*
X7744460D01*
Y2531230D01*
X7680960D01*
Y1945630D01*
X8061960D01*
Y2531230D01*
X7998460D01*
Y6432670D01*
X8061960D01*
Y7018270D01*
X7680960D01*
G37*
G36*
G01X7172960Y1945630D02*
Y2531230D01*
X8696960D01*
Y1945630D01*
X7172960D01*
G37*
G36*
G01Y6432670D02*
Y7018270D01*
X8696960D01*
Y6432670D01*
X7172960D01*
G37*
G54D10*
X-3622040Y3168250D03*
X833120Y3942740D03*
X5034280D03*
G54D11*
X-3622040Y2699620D03*
X406400Y1211580D03*
Y7213600D03*
X5207000Y1211580D03*
Y7213600D03*
G54D12*
X-3622040Y3636880D03*
Y4574140D03*
X162560Y4268660D03*
Y4393660D03*
Y4518660D03*
X1385240Y4268660D03*
Y4393660D03*
Y4518660D03*
X2532380Y770940D03*
Y970940D03*
Y1170940D03*
X2581180Y7213600D03*
X2456180D03*
X3023140D03*
X2898140D03*
X5506720Y4522660D03*
Y4397660D03*
Y4272660D03*
G54D13*
X-3622040Y4105520D03*
X543600Y2415580D03*
Y2639100D03*
X642620Y4518660D03*
X949960Y7485380D03*
X1673860Y2674620D03*
X1783960Y5950340D03*
X1381760Y6212840D03*
X1582520Y6125340D03*
X1782520Y6519620D03*
X1242060Y7485380D03*
X2181860Y2120900D03*
X1927860Y2762120D03*
X2181860Y2849620D03*
X1983480Y6037840D03*
X1982520Y6422440D03*
X2283460Y7673340D03*
X2282190Y7325360D03*
X2895640Y6212840D03*
X3149640Y6125340D03*
X3939540Y4114800D03*
X3469640Y6037840D03*
X3723640Y5950340D03*
X4467860Y3931920D03*
X4640960Y4739260D03*
Y4272660D03*
X4315930Y7421880D03*
X4405200Y7509380D03*
G54D14*
G01X-3819140Y4818380D02*
Y4907280D01*
X-3780540D01*
G01X-3794760Y4864310D02*
X-3819140D01*
G01X-3745990Y4907280D02*
X-3721610D01*
G01X-3733800D02*
Y4818380D01*
G01X-3745990D02*
X-3721610D01*
G01X-3661660Y4862830D02*
X-3641340D01*
Y4836160D01*
X-3647440Y4827270D01*
X-3654550Y4821340D01*
X-3664710Y4818380D01*
X-3674870Y4821340D01*
X-3681980Y4827270D01*
X-3688080Y4836160D01*
X-3692150Y4846530D01*
X-3694180Y4858380D01*
Y4868760D01*
X-3692150Y4877640D01*
X-3688080Y4888020D01*
X-3681980Y4896910D01*
X-3675890Y4902830D01*
X-3667760Y4907280D01*
X-3660650D01*
X-3652520Y4904320D01*
X-3646420Y4898390D01*
G01X-3624070Y4907280D02*
Y4843570D01*
X-3620010Y4830230D01*
X-3611880Y4821340D01*
X-3601720Y4818380D01*
X-3591560Y4821340D01*
X-3583430Y4830230D01*
X-3579370Y4843570D01*
Y4907280D01*
G01X-3556000Y4818380D02*
Y4907280D01*
X-3530600D01*
X-3522470Y4902830D01*
X-3517390Y4896910D01*
X-3515360Y4885050D01*
X-3517390Y4873200D01*
X-3523490Y4865790D01*
X-3530600Y4861350D01*
X-3556000D01*
G01X-3530600D02*
X-3515360Y4818380D01*
G01X-3449320D02*
X-3489960D01*
Y4907280D01*
X-3449320D01*
G01X-3465580Y4864310D02*
X-3489960D01*
G01X-3022600Y3123800D02*
Y3212700D01*
X-3034790Y3194920D01*
G01Y3123800D02*
X-3010410D01*
G01X-2956560Y3120840D02*
X-2958590Y3122320D01*
Y3125280D01*
X-2956560Y3126760D01*
X-2954530Y3125280D01*
Y3122320D01*
X-2956560Y3120840D01*
G01X-2890520Y3212700D02*
X-2898650Y3209740D01*
X-2904740Y3202330D01*
X-2908810Y3193440D01*
X-2911860Y3181580D01*
X-2912870Y3168250D01*
X-2911860Y3154910D01*
X-2908810Y3143060D01*
X-2904740Y3134170D01*
X-2898650Y3126760D01*
X-2890520Y3123800D01*
X-2882390Y3126760D01*
X-2876300Y3134170D01*
X-2872230Y3143060D01*
X-2869180Y3154910D01*
X-2868170Y3168250D01*
X-2869180Y3181580D01*
X-2872230Y3193440D01*
X-2876300Y3202330D01*
X-2882390Y3209740D01*
X-2890520Y3212700D01*
G01X-2824480Y3123800D02*
Y3212700D01*
X-2836670Y3194920D01*
G01Y3123800D02*
X-2812290D01*
G01X-2777740Y3160840D02*
X-2770630Y3171210D01*
X-2764540Y3177140D01*
X-2756410Y3180100D01*
X-2749300Y3177140D01*
X-2744220Y3171210D01*
X-2740150Y3162320D01*
X-2739140Y3151950D01*
X-2740150Y3143060D01*
X-2744220Y3134170D01*
X-2750310Y3126760D01*
X-2757420Y3123800D01*
X-2765550Y3126760D01*
X-2772660Y3135650D01*
X-2776730Y3148990D01*
X-2777740Y3163800D01*
X-2775710Y3183060D01*
X-2772660Y3193440D01*
X-2767580Y3203810D01*
X-2760470Y3211220D01*
X-2753360Y3212700D01*
X-2746250Y3209740D01*
X-2741170Y3202330D01*
G01X-3077970Y2672950D02*
X-3071880Y2662580D01*
X-3063750Y2656650D01*
X-3054600Y2655170D01*
X-3046480Y2656650D01*
X-3038350Y2664060D01*
X-3033270Y2672950D01*
X-3032250Y2681840D01*
X-3034280Y2692210D01*
X-3041400Y2699620D01*
X-3048510Y2702580D01*
X-3057650D01*
G01X-3048510D02*
X-3042410Y2707030D01*
X-3037330Y2714430D01*
X-3035300Y2723330D01*
X-3037330Y2732220D01*
X-3042410Y2739620D01*
X-3051560Y2744070D01*
X-3060700Y2742590D01*
X-3069840Y2736660D01*
G01X-2989580Y2652210D02*
X-2991610Y2653690D01*
Y2656650D01*
X-2989580Y2658130D01*
X-2987550Y2656650D01*
Y2653690D01*
X-2989580Y2652210D01*
G01X-2942840Y2729250D02*
X-2936750Y2738140D01*
X-2929640Y2742590D01*
X-2921510Y2744070D01*
X-2911350Y2741110D01*
X-2904240Y2733700D01*
X-2902200Y2724810D01*
X-2903220Y2715920D01*
X-2907280Y2708510D01*
X-2927600Y2693690D01*
X-2936750Y2683320D01*
X-2942840Y2668500D01*
X-2944880Y2655170D01*
X-2902200D01*
G01X-2857500Y2744070D02*
X-2865630Y2741110D01*
X-2871720Y2733700D01*
X-2875790Y2724810D01*
X-2878840Y2712950D01*
X-2879850Y2699620D01*
X-2878840Y2686280D01*
X-2875790Y2674430D01*
X-2871720Y2665540D01*
X-2865630Y2658130D01*
X-2857500Y2655170D01*
X-2849370Y2658130D01*
X-2843280Y2665540D01*
X-2839210Y2674430D01*
X-2836160Y2686280D01*
X-2835150Y2699620D01*
X-2836160Y2712950D01*
X-2839210Y2724810D01*
X-2843280Y2733700D01*
X-2849370Y2741110D01*
X-2857500Y2744070D01*
G01X-2791460D02*
X-2799590Y2741110D01*
X-2805680Y2733700D01*
X-2809750Y2724810D01*
X-2812800Y2712950D01*
X-2813810Y2699620D01*
X-2812800Y2686280D01*
X-2809750Y2674430D01*
X-2805680Y2665540D01*
X-2799590Y2658130D01*
X-2791460Y2655170D01*
X-2783330Y2658130D01*
X-2777240Y2665540D01*
X-2773170Y2674430D01*
X-2770120Y2686280D01*
X-2769110Y2699620D01*
X-2770120Y2712950D01*
X-2773170Y2724810D01*
X-2777240Y2733700D01*
X-2783330Y2741110D01*
X-2791460Y2744070D01*
G01X-2713230Y2655170D02*
Y2744070D01*
X-2750820Y2680360D01*
X-2700020D01*
G01X-3055620Y3681330D02*
X-3063750Y3678370D01*
X-3069840Y3670960D01*
X-3073910Y3662070D01*
X-3076960Y3650210D01*
X-3077970Y3636880D01*
X-3076960Y3623540D01*
X-3073910Y3611690D01*
X-3069840Y3602800D01*
X-3063750Y3595390D01*
X-3055620Y3592430D01*
X-3047490Y3595390D01*
X-3041400Y3602800D01*
X-3037330Y3611690D01*
X-3034280Y3623540D01*
X-3033270Y3636880D01*
X-3034280Y3650210D01*
X-3037330Y3662070D01*
X-3041400Y3670960D01*
X-3047490Y3678370D01*
X-3055620Y3681330D01*
G01X-2989580Y3589470D02*
X-2991610Y3590950D01*
Y3593910D01*
X-2989580Y3595390D01*
X-2987550Y3593910D01*
Y3590950D01*
X-2989580Y3589470D01*
G01X-2942840Y3629470D02*
X-2935730Y3639840D01*
X-2929640Y3645770D01*
X-2921510Y3648730D01*
X-2914400Y3645770D01*
X-2909320Y3639840D01*
X-2905250Y3630950D01*
X-2904240Y3620580D01*
X-2905250Y3611690D01*
X-2909320Y3602800D01*
X-2915410Y3595390D01*
X-2922520Y3592430D01*
X-2930650Y3595390D01*
X-2937760Y3604280D01*
X-2941830Y3617620D01*
X-2942840Y3632430D01*
X-2940810Y3651690D01*
X-2937760Y3662070D01*
X-2932680Y3672440D01*
X-2925570Y3679850D01*
X-2918460Y3681330D01*
X-2911350Y3678370D01*
X-2906270Y3670960D01*
G01X-2857500Y3681330D02*
X-2865630Y3678370D01*
X-2871720Y3670960D01*
X-2875790Y3662070D01*
X-2878840Y3650210D01*
X-2879850Y3636880D01*
X-2878840Y3623540D01*
X-2875790Y3611690D01*
X-2871720Y3602800D01*
X-2865630Y3595390D01*
X-2857500Y3592430D01*
X-2849370Y3595390D01*
X-2843280Y3602800D01*
X-2839210Y3611690D01*
X-2836160Y3623540D01*
X-2835150Y3636880D01*
X-2836160Y3650210D01*
X-2839210Y3662070D01*
X-2843280Y3670960D01*
X-2849370Y3678370D01*
X-2857500Y3681330D01*
G01X-2808730Y3602800D02*
X-2801620Y3595390D01*
X-2793490Y3592430D01*
X-2785360Y3595390D01*
X-2778250Y3604280D01*
X-2773170Y3617620D01*
X-2771140Y3630950D01*
Y3647250D01*
X-2773170Y3660590D01*
X-2778250Y3672440D01*
X-2784350Y3678370D01*
X-2791460Y3681330D01*
X-2799590Y3678370D01*
X-2805680Y3672440D01*
X-2809750Y3663550D01*
X-2811780Y3651690D01*
X-2809750Y3641330D01*
X-2804670Y3630950D01*
X-2798570Y3625030D01*
X-2791460Y3623540D01*
X-2783330Y3626510D01*
X-2777240Y3633920D01*
X-2771140Y3647250D01*
G01X-2744720Y3629470D02*
X-2737610Y3639840D01*
X-2731520Y3645770D01*
X-2723390Y3648730D01*
X-2716280Y3645770D01*
X-2711200Y3639840D01*
X-2707130Y3630950D01*
X-2706120Y3620580D01*
X-2707130Y3611690D01*
X-2711200Y3602800D01*
X-2717290Y3595390D01*
X-2724400Y3592430D01*
X-2732530Y3595390D01*
X-2739640Y3604280D01*
X-2743710Y3617620D01*
X-2744720Y3632430D01*
X-2742690Y3651690D01*
X-2739640Y3662070D01*
X-2734560Y3672440D01*
X-2727450Y3679850D01*
X-2720340Y3681330D01*
X-2713230Y3678370D01*
X-2708150Y3670960D01*
G01X-3055620Y4618600D02*
X-3063750Y4615640D01*
X-3069840Y4608230D01*
X-3073910Y4599340D01*
X-3076960Y4587480D01*
X-3077970Y4574150D01*
X-3076960Y4560810D01*
X-3073910Y4548960D01*
X-3069840Y4540070D01*
X-3063750Y4532660D01*
X-3055620Y4529700D01*
X-3047490Y4532660D01*
X-3041400Y4540070D01*
X-3037330Y4548960D01*
X-3034280Y4560810D01*
X-3033270Y4574150D01*
X-3034280Y4587480D01*
X-3037330Y4599340D01*
X-3041400Y4608230D01*
X-3047490Y4615640D01*
X-3055620Y4618600D01*
G01X-2989580Y4526740D02*
X-2991610Y4528220D01*
Y4531180D01*
X-2989580Y4532660D01*
X-2987550Y4531180D01*
Y4528220D01*
X-2989580Y4526740D01*
G01X-2911350Y4529700D02*
Y4618600D01*
X-2948940Y4554890D01*
X-2898140D01*
G01X-2857500Y4618600D02*
X-2865630Y4615640D01*
X-2871720Y4608230D01*
X-2875790Y4599340D01*
X-2878840Y4587480D01*
X-2879850Y4574150D01*
X-2878840Y4560810D01*
X-2875790Y4548960D01*
X-2871720Y4540070D01*
X-2865630Y4532660D01*
X-2857500Y4529700D01*
X-2849370Y4532660D01*
X-2843280Y4540070D01*
X-2839210Y4548960D01*
X-2836160Y4560810D01*
X-2835150Y4574150D01*
X-2836160Y4587480D01*
X-2839210Y4599340D01*
X-2843280Y4608230D01*
X-2849370Y4615640D01*
X-2857500Y4618600D01*
G01X-2810760Y4566740D02*
X-2803650Y4577110D01*
X-2797560Y4583040D01*
X-2789430Y4586000D01*
X-2782320Y4583040D01*
X-2777240Y4577110D01*
X-2773170Y4568220D01*
X-2772160Y4557850D01*
X-2773170Y4548960D01*
X-2777240Y4540070D01*
X-2783330Y4532660D01*
X-2790440Y4529700D01*
X-2798570Y4532660D01*
X-2805680Y4541550D01*
X-2809750Y4554890D01*
X-2810760Y4569700D01*
X-2808730Y4588960D01*
X-2805680Y4599340D01*
X-2800600Y4609710D01*
X-2793490Y4617120D01*
X-2786380Y4618600D01*
X-2779270Y4615640D01*
X-2774190Y4608230D01*
G01X-2713230Y4529700D02*
Y4618600D01*
X-2750820Y4554890D01*
X-2700020D01*
G01X-3055620Y4149960D02*
X-3063750Y4147000D01*
X-3069840Y4139590D01*
X-3073910Y4130700D01*
X-3076960Y4118840D01*
X-3077970Y4105510D01*
X-3076960Y4092170D01*
X-3073910Y4080320D01*
X-3069840Y4071430D01*
X-3063750Y4064020D01*
X-3055620Y4061060D01*
X-3047490Y4064020D01*
X-3041400Y4071430D01*
X-3037330Y4080320D01*
X-3034280Y4092170D01*
X-3033270Y4105510D01*
X-3034280Y4118840D01*
X-3037330Y4130700D01*
X-3041400Y4139590D01*
X-3047490Y4147000D01*
X-3055620Y4149960D01*
G01X-2989580Y4058100D02*
X-2991610Y4059580D01*
Y4062540D01*
X-2989580Y4064020D01*
X-2987550Y4062540D01*
Y4059580D01*
X-2989580Y4058100D01*
G01X-2911350Y4061060D02*
Y4149960D01*
X-2948940Y4086250D01*
X-2898140D01*
G01X-2857500Y4149960D02*
X-2865630Y4147000D01*
X-2871720Y4139590D01*
X-2875790Y4130700D01*
X-2878840Y4118840D01*
X-2879850Y4105510D01*
X-2878840Y4092170D01*
X-2875790Y4080320D01*
X-2871720Y4071430D01*
X-2865630Y4064020D01*
X-2857500Y4061060D01*
X-2849370Y4064020D01*
X-2843280Y4071430D01*
X-2839210Y4080320D01*
X-2836160Y4092170D01*
X-2835150Y4105510D01*
X-2836160Y4118840D01*
X-2839210Y4130700D01*
X-2843280Y4139590D01*
X-2849370Y4147000D01*
X-2857500Y4149960D01*
G01X-2810760Y4098100D02*
X-2803650Y4108470D01*
X-2797560Y4114400D01*
X-2789430Y4117360D01*
X-2782320Y4114400D01*
X-2777240Y4108470D01*
X-2773170Y4099580D01*
X-2772160Y4089210D01*
X-2773170Y4080320D01*
X-2777240Y4071430D01*
X-2783330Y4064020D01*
X-2790440Y4061060D01*
X-2798570Y4064020D01*
X-2805680Y4072910D01*
X-2809750Y4086250D01*
X-2810760Y4101060D01*
X-2808730Y4120320D01*
X-2805680Y4130700D01*
X-2800600Y4141070D01*
X-2793490Y4148480D01*
X-2786380Y4149960D01*
X-2779270Y4147000D01*
X-2774190Y4139590D01*
G01X-2713230Y4061060D02*
Y4149960D01*
X-2750820Y4086250D01*
X-2700020D01*
G01X-3451350Y5354320D02*
Y5443220D01*
X-3431030D01*
X-3422900Y5438770D01*
X-3416810Y5432850D01*
X-3411730Y5423960D01*
X-3407660Y5413580D01*
X-3406650Y5398770D01*
X-3407660Y5383950D01*
X-3411730Y5373580D01*
X-3416810Y5364690D01*
X-3422900Y5358760D01*
X-3431030Y5354320D01*
X-3451350D01*
G01X-3383280D02*
Y5443220D01*
X-3357880D01*
X-3349750Y5438770D01*
X-3344670Y5432850D01*
X-3342640Y5420990D01*
X-3344670Y5409140D01*
X-3350770Y5401730D01*
X-3357880Y5397290D01*
X-3383280D01*
G01X-3357880D02*
X-3342640Y5354320D01*
G01X-3309110Y5443220D02*
X-3284730D01*
G01X-3296920D02*
Y5354320D01*
G01X-3309110D02*
X-3284730D01*
G01X-3251200Y5443220D02*
Y5354320D01*
X-3210560D01*
G01X-3185160Y5443220D02*
Y5354320D01*
X-3144520D01*
G01X-3010410Y5435810D02*
X-3016500Y5440260D01*
X-3023620Y5443220D01*
X-3031740D01*
X-3040890Y5438770D01*
X-3048000Y5431370D01*
X-3053080Y5422480D01*
X-3057150Y5407660D01*
X-3058160Y5394320D01*
X-3056130Y5380990D01*
X-3053080Y5372100D01*
X-3046980Y5363210D01*
X-3039870Y5357280D01*
X-3032760Y5354320D01*
X-3025650D01*
X-3018540Y5357280D01*
X-3012440Y5361730D01*
X-3007360Y5367650D01*
G01X-2988060Y5354320D02*
Y5443220D01*
G01X-2945380D02*
Y5354320D01*
G01Y5398770D02*
X-2988060D01*
G01X-2926080Y5354320D02*
X-2900680Y5443220D01*
X-2875280Y5354320D01*
G01X-2884420Y5385430D02*
X-2916940D01*
G01X-2854960Y5354320D02*
Y5443220D01*
X-2829560D01*
X-2821430Y5438770D01*
X-2816350Y5432850D01*
X-2814320Y5420990D01*
X-2816350Y5409140D01*
X-2822450Y5401730D01*
X-2829560Y5397290D01*
X-2854960D01*
G01X-2829560D02*
X-2814320Y5354320D01*
G01X-2768600Y5443220D02*
Y5354320D01*
G01X-2791970Y5443220D02*
X-2745230D01*
G01X-2702560Y5351360D02*
X-2704590Y5352840D01*
Y5355800D01*
X-2702560Y5357280D01*
X-2700530Y5355800D01*
Y5352840D01*
X-2702560Y5351360D01*
G01Y5391360D02*
X-2704590Y5392840D01*
Y5395810D01*
X-2702560Y5397290D01*
X-2700530Y5395810D01*
Y5392840D01*
X-2702560Y5391360D01*
G01X-2570480Y5443220D02*
Y5354320D01*
G01X-2593850Y5443220D02*
X-2547110D01*
G01X-2504440Y5354320D02*
X-2512570Y5355800D01*
X-2519680Y5361730D01*
X-2525780Y5370620D01*
X-2529840Y5380990D01*
X-2531870Y5392840D01*
Y5404700D01*
X-2529840Y5416550D01*
X-2525780Y5426920D01*
X-2519680Y5435810D01*
X-2512570Y5441740D01*
X-2504440Y5443220D01*
X-2496310Y5441740D01*
X-2489200Y5435810D01*
X-2483100Y5426920D01*
X-2479040Y5416550D01*
X-2477010Y5404700D01*
Y5392840D01*
X-2479040Y5380990D01*
X-2483100Y5370620D01*
X-2489200Y5361730D01*
X-2496310Y5355800D01*
X-2504440Y5354320D01*
G01X-2458720D02*
Y5443220D01*
X-2434340D01*
X-2426210Y5438770D01*
X-2420110Y5428400D01*
X-2418080Y5416550D01*
X-2420110Y5404700D01*
X-2425190Y5395810D01*
X-2434340Y5391360D01*
X-2458720D01*
G01X-2306320Y5443220D02*
Y5354320D01*
G01X-2320540Y5413580D02*
X-2292100D01*
G01X-2240280Y5354320D02*
X-2246380Y5355800D01*
X-2252470Y5361730D01*
X-2256540Y5372100D01*
X-2258570Y5383950D01*
X-2256540Y5395810D01*
X-2252470Y5406180D01*
X-2246380Y5412100D01*
X-2240280Y5413580D01*
X-2234180Y5412100D01*
X-2228090Y5406180D01*
X-2224020Y5395810D01*
X-2223010Y5383950D01*
X-2224020Y5372100D01*
X-2228090Y5361730D01*
X-2234180Y5355800D01*
X-2240280Y5354320D01*
G01X-2100070Y5401730D02*
X-2096010Y5406180D01*
X-2092960Y5413580D01*
X-2090930Y5423960D01*
X-2092960Y5432850D01*
X-2097020Y5438770D01*
X-2104140Y5443220D01*
X-2131570D01*
Y5354320D01*
X-2098040D01*
X-2090930Y5360250D01*
X-2086860Y5369140D01*
X-2084830Y5379510D01*
X-2086860Y5389880D01*
X-2092960Y5398770D01*
X-2100070Y5401730D01*
X-2131570D01*
G01X-2042160Y5354320D02*
X-2050290Y5355800D01*
X-2057400Y5361730D01*
X-2063500Y5370620D01*
X-2067560Y5380990D01*
X-2069590Y5392840D01*
Y5404700D01*
X-2067560Y5416550D01*
X-2063500Y5426920D01*
X-2057400Y5435810D01*
X-2050290Y5441740D01*
X-2042160Y5443220D01*
X-2034030Y5441740D01*
X-2026920Y5435810D01*
X-2020820Y5426920D01*
X-2016760Y5416550D01*
X-2014730Y5404700D01*
Y5392840D01*
X-2016760Y5380990D01*
X-2020820Y5370620D01*
X-2026920Y5361730D01*
X-2034030Y5355800D01*
X-2042160Y5354320D01*
G01X-1976120Y5443220D02*
Y5354320D01*
G01X-1999490Y5443220D02*
X-1952750D01*
G01X-1910080D02*
Y5354320D01*
G01X-1933450Y5443220D02*
X-1886710D01*
G01X-1844040Y5354320D02*
X-1852170Y5355800D01*
X-1859280Y5361730D01*
X-1865380Y5370620D01*
X-1869440Y5380990D01*
X-1871470Y5392840D01*
Y5404700D01*
X-1869440Y5416550D01*
X-1865380Y5426920D01*
X-1859280Y5435810D01*
X-1852170Y5441740D01*
X-1844040Y5443220D01*
X-1835910Y5441740D01*
X-1828800Y5435810D01*
X-1822700Y5426920D01*
X-1818640Y5416550D01*
X-1816610Y5404700D01*
Y5392840D01*
X-1818640Y5380990D01*
X-1822700Y5370620D01*
X-1828800Y5361730D01*
X-1835910Y5355800D01*
X-1844040Y5354320D01*
G01X-1804420D02*
Y5443220D01*
X-1778000Y5369140D01*
X-1751580Y5443220D01*
Y5354320D01*
G01X-3507740Y4959590D02*
X-3482340Y5048490D01*
X-3456940Y4959590D01*
G01X-3466080Y4990700D02*
X-3498600D01*
G01X-3436620Y5048490D02*
Y4959590D01*
X-3395980D01*
G01X-3370580Y5048490D02*
Y4959590D01*
X-3329940D01*
G01X-3240530Y5048490D02*
Y4984780D01*
X-3236470Y4971440D01*
X-3228340Y4962550D01*
X-3218180Y4959590D01*
X-3208020Y4962550D01*
X-3199890Y4971440D01*
X-3195830Y4984780D01*
Y5048490D01*
G01X-3175510Y4959590D02*
Y5048490D01*
X-3128770Y4959590D01*
Y5048490D01*
G01X-3098290D02*
X-3073910D01*
G01X-3086100D02*
Y4959590D01*
G01X-3098290D02*
X-3073910D01*
G01X-3020060Y5048490D02*
Y4959590D01*
G01X-3043430Y5048490D02*
X-2996690D01*
G01X-2975360Y4971440D02*
X-2967230Y4964030D01*
X-2958080Y4959590D01*
X-2949960D01*
X-2941830Y4964030D01*
X-2935730Y4971440D01*
X-2932680Y4981820D01*
X-2934720Y4992190D01*
X-2939800Y5001080D01*
X-2948940Y5007000D01*
X-2961130Y5009970D01*
X-2968240Y5015890D01*
X-2971290Y5026260D01*
X-2969260Y5036640D01*
X-2964180Y5044040D01*
X-2957070Y5048490D01*
X-2949960D01*
X-2942840Y5045530D01*
X-2936750Y5038120D01*
G01X-2847340Y4959590D02*
X-2821940Y5048490D01*
X-2796540Y4959590D01*
G01X-2805680Y4990700D02*
X-2838200D01*
G01X-2776220Y4959590D02*
Y5048490D01*
X-2750820D01*
X-2742690Y5044040D01*
X-2737610Y5038120D01*
X-2735580Y5026260D01*
X-2737610Y5014410D01*
X-2743710Y5007000D01*
X-2750820Y5002560D01*
X-2776220D01*
G01X-2750820D02*
X-2735580Y4959590D01*
G01X-2669540D02*
X-2710180D01*
Y5048490D01*
X-2669540D01*
G01X-2685800Y5005520D02*
X-2710180D01*
G01X-2569970Y5048490D02*
X-2545590D01*
G01X-2557780D02*
Y4959590D01*
G01X-2569970D02*
X-2545590D01*
G01X-2515110D02*
Y5048490D01*
X-2468370Y4959590D01*
Y5048490D01*
G01X-2386080Y4959590D02*
Y5048490D01*
X-2359660Y4974410D01*
X-2333240Y5048490D01*
Y4959590D01*
G01X-2305810Y5048490D02*
X-2281430D01*
G01X-2293620D02*
Y4959590D01*
G01X-2305810D02*
X-2281430D01*
G01X-2247900Y5048490D02*
Y4959590D01*
X-2207260D01*
G01X-2181860Y5048490D02*
Y4959590D01*
X-2141220D01*
G01X-2107690Y5048490D02*
X-2083310D01*
G01X-2095500D02*
Y4959590D01*
G01X-2107690D02*
X-2083310D01*
G01X-2055880D02*
Y5048490D01*
X-2029460Y4974410D01*
X-2003040Y5048490D01*
Y4959590D01*
G01X-1943100D02*
X-1983740D01*
Y5048490D01*
X-1943100D01*
G01X-1959360Y5005520D02*
X-1983740D01*
G01X-1897380Y5048490D02*
Y4959590D01*
G01X-1920750Y5048490D02*
X-1874010D01*
G01X-1811020Y4959590D02*
X-1851660D01*
Y5048490D01*
X-1811020D01*
G01X-1827280Y5005520D02*
X-1851660D01*
G01X-1785620Y4959590D02*
Y5048490D01*
X-1760220D01*
X-1752090Y5044040D01*
X-1747010Y5038120D01*
X-1744980Y5026260D01*
X-1747010Y5014410D01*
X-1753110Y5007000D01*
X-1760220Y5002560D01*
X-1785620D01*
G01X-1760220D02*
X-1744980Y4959590D01*
G01X-1720600Y4971440D02*
X-1712470Y4964030D01*
X-1703320Y4959590D01*
X-1695200D01*
X-1687070Y4964030D01*
X-1680970Y4971440D01*
X-1677920Y4981820D01*
X-1679960Y4992190D01*
X-1685040Y5001080D01*
X-1694180Y5007000D01*
X-1706370Y5009970D01*
X-1713480Y5015890D01*
X-1716530Y5026260D01*
X-1714500Y5036640D01*
X-1709420Y5044040D01*
X-1702310Y5048490D01*
X-1695200D01*
X-1688080Y5045530D01*
X-1681990Y5038120D01*
G01X-3010920Y4839360D02*
X-3002790Y4831950D01*
X-2993640Y4827510D01*
X-2985520D01*
X-2977390Y4831950D01*
X-2971290Y4839360D01*
X-2968240Y4849740D01*
X-2970280Y4860110D01*
X-2975360Y4869000D01*
X-2984500Y4874920D01*
X-2996690Y4877890D01*
X-3003800Y4883810D01*
X-3006850Y4894180D01*
X-3004820Y4904560D01*
X-2999740Y4911960D01*
X-2992630Y4916410D01*
X-2985520D01*
X-2978400Y4913450D01*
X-2972310Y4906040D01*
G01X-2935730Y4916410D02*
X-2911350D01*
G01X-2923540D02*
Y4827510D01*
G01X-2935730D02*
X-2911350D01*
G01X-2876800Y4916410D02*
X-2838200D01*
X-2876800Y4827510D01*
X-2838200D01*
G01X-2771140D02*
X-2811780D01*
Y4916410D01*
X-2771140D01*
G01X-2787400Y4873440D02*
X-2811780D01*
G01X-2245360Y3123800D02*
Y3212700D01*
X-2220980D01*
X-2212850Y3208250D01*
X-2206750Y3197880D01*
X-2204720Y3186030D01*
X-2206750Y3174180D01*
X-2211830Y3165290D01*
X-2220980Y3160840D01*
X-2245360D01*
G01X-2179320Y3212700D02*
Y3123800D01*
X-2138680D01*
G01X-2118360D02*
X-2092960Y3212700D01*
X-2067560Y3123800D01*
G01X-2076700Y3154910D02*
X-2109220D01*
G01X-2026920Y3212700D02*
Y3123800D01*
G01X-2050290Y3212700D02*
X-2003550D01*
G01X-1940560Y3123800D02*
X-1981200D01*
Y3212700D01*
X-1940560D01*
G01X-1956820Y3169730D02*
X-1981200D01*
G01X-1917190Y3123800D02*
Y3212700D01*
X-1896870D01*
X-1888740Y3208250D01*
X-1882650Y3202330D01*
X-1877570Y3193440D01*
X-1873500Y3183060D01*
X-1872490Y3168250D01*
X-1873500Y3153430D01*
X-1877570Y3143060D01*
X-1882650Y3134170D01*
X-1888740Y3128240D01*
X-1896870Y3123800D01*
X-1917190D01*
G01X-2380490Y2655170D02*
Y2744070D01*
X-2333750Y2655170D01*
Y2744070D01*
G01X-2291080Y2655170D02*
X-2299210Y2656650D01*
X-2306320Y2662580D01*
X-2312420Y2671470D01*
X-2316480Y2681840D01*
X-2318510Y2693690D01*
Y2705550D01*
X-2316480Y2717400D01*
X-2312420Y2727770D01*
X-2306320Y2736660D01*
X-2299210Y2742590D01*
X-2291080Y2744070D01*
X-2282950Y2742590D01*
X-2275840Y2736660D01*
X-2269740Y2727770D01*
X-2265680Y2717400D01*
X-2263650Y2705550D01*
Y2693690D01*
X-2265680Y2681840D01*
X-2269740Y2671470D01*
X-2275840Y2662580D01*
X-2282950Y2656650D01*
X-2291080Y2655170D01*
G01X-2248410D02*
Y2744070D01*
X-2201670Y2655170D01*
Y2744070D01*
G01X-2172210Y2684800D02*
X-2145790D01*
G01X-2113280Y2655170D02*
Y2744070D01*
X-2088900D01*
X-2080770Y2739620D01*
X-2074670Y2729250D01*
X-2072640Y2717400D01*
X-2074670Y2705550D01*
X-2079750Y2696660D01*
X-2088900Y2692210D01*
X-2113280D01*
G01X-2047240Y2744070D02*
Y2655170D01*
X-2006600D01*
G01X-1986280D02*
X-1960880Y2744070D01*
X-1935480Y2655170D01*
G01X-1944620Y2686280D02*
X-1977140D01*
G01X-1894840Y2744070D02*
Y2655170D01*
G01X-1918210Y2744070D02*
X-1871470D01*
G01X-1808480Y2655170D02*
X-1849120D01*
Y2744070D01*
X-1808480D01*
G01X-1824740Y2701100D02*
X-1849120D01*
G01X-1785110Y2655170D02*
Y2744070D01*
X-1764790D01*
X-1756660Y2739620D01*
X-1750570Y2733700D01*
X-1745490Y2724810D01*
X-1741420Y2714430D01*
X-1740410Y2699620D01*
X-1741420Y2684800D01*
X-1745490Y2674430D01*
X-1750570Y2665540D01*
X-1756660Y2659610D01*
X-1764790Y2655170D01*
X-1785110D01*
G01X-2245360Y3592430D02*
Y3681330D01*
X-2220980D01*
X-2212850Y3676880D01*
X-2206750Y3666510D01*
X-2204720Y3654660D01*
X-2206750Y3642810D01*
X-2211830Y3633920D01*
X-2220980Y3629470D01*
X-2245360D01*
G01X-2179320Y3681330D02*
Y3592430D01*
X-2138680D01*
G01X-2118360D02*
X-2092960Y3681330D01*
X-2067560Y3592430D01*
G01X-2076700Y3623540D02*
X-2109220D01*
G01X-2026920Y3681330D02*
Y3592430D01*
G01X-2050290Y3681330D02*
X-2003550D01*
G01X-1940560Y3592430D02*
X-1981200D01*
Y3681330D01*
X-1940560D01*
G01X-1956820Y3638360D02*
X-1981200D01*
G01X-1917190Y3592430D02*
Y3681330D01*
X-1896870D01*
X-1888740Y3676880D01*
X-1882650Y3670960D01*
X-1877570Y3662070D01*
X-1873500Y3651690D01*
X-1872490Y3636880D01*
X-1873500Y3622060D01*
X-1877570Y3611690D01*
X-1882650Y3602800D01*
X-1888740Y3596870D01*
X-1896870Y3592430D01*
X-1917190D01*
G01X-2245360Y4529700D02*
Y4618600D01*
X-2220980D01*
X-2212850Y4614150D01*
X-2206750Y4603780D01*
X-2204720Y4591930D01*
X-2206750Y4580080D01*
X-2211830Y4571190D01*
X-2220980Y4566740D01*
X-2245360D01*
G01X-2179320Y4618600D02*
Y4529700D01*
X-2138680D01*
G01X-2118360D02*
X-2092960Y4618600D01*
X-2067560Y4529700D01*
G01X-2076700Y4560810D02*
X-2109220D01*
G01X-2026920Y4618600D02*
Y4529700D01*
G01X-2050290Y4618600D02*
X-2003550D01*
G01X-1940560Y4529700D02*
X-1981200D01*
Y4618600D01*
X-1940560D01*
G01X-1956820Y4575630D02*
X-1981200D01*
G01X-1917190Y4529700D02*
Y4618600D01*
X-1896870D01*
X-1888740Y4614150D01*
X-1882650Y4608230D01*
X-1877570Y4599340D01*
X-1873500Y4588960D01*
X-1872490Y4574150D01*
X-1873500Y4559330D01*
X-1877570Y4548960D01*
X-1882650Y4540070D01*
X-1888740Y4534140D01*
X-1896870Y4529700D01*
X-1917190D01*
G01X-2245360Y4061060D02*
Y4149960D01*
X-2220980D01*
X-2212850Y4145510D01*
X-2206750Y4135140D01*
X-2204720Y4123290D01*
X-2206750Y4111440D01*
X-2211830Y4102550D01*
X-2220980Y4098100D01*
X-2245360D01*
G01X-2179320Y4149960D02*
Y4061060D01*
X-2138680D01*
G01X-2118360D02*
X-2092960Y4149960D01*
X-2067560Y4061060D01*
G01X-2076700Y4092170D02*
X-2109220D01*
G01X-2026920Y4149960D02*
Y4061060D01*
G01X-2050290Y4149960D02*
X-2003550D01*
G01X-1940560Y4061060D02*
X-1981200D01*
Y4149960D01*
X-1940560D01*
G01X-1956820Y4106990D02*
X-1981200D01*
G01X-1917190Y4061060D02*
Y4149960D01*
X-1896870D01*
X-1888740Y4145510D01*
X-1882650Y4139590D01*
X-1877570Y4130700D01*
X-1873500Y4120320D01*
X-1872490Y4105510D01*
X-1873500Y4090690D01*
X-1877570Y4080320D01*
X-1882650Y4071430D01*
X-1888740Y4065500D01*
X-1896870Y4061060D01*
X-1917190D01*
G01X-2250440Y4820920D02*
Y4909820D01*
X-2226060D01*
X-2217930Y4905370D01*
X-2211830Y4895000D01*
X-2209800Y4883150D01*
X-2211830Y4871300D01*
X-2216910Y4862410D01*
X-2226060Y4857960D01*
X-2250440D01*
G01X-2184400Y4909820D02*
Y4820920D01*
X-2143760D01*
G01X-2123440D02*
X-2098040Y4909820D01*
X-2072640Y4820920D01*
G01X-2081780Y4852030D02*
X-2114300D01*
G01X-2032000Y4909820D02*
Y4820920D01*
G01X-2055370Y4909820D02*
X-2008630D01*
G01X-1945640Y4820920D02*
X-1986280D01*
Y4909820D01*
X-1945640D01*
G01X-1961900Y4866850D02*
X-1986280D01*
G01X-1922270Y4820920D02*
Y4909820D01*
X-1901950D01*
X-1893820Y4905370D01*
X-1887730Y4899450D01*
X-1882650Y4890560D01*
X-1878580Y4880180D01*
X-1877570Y4865370D01*
X-1878580Y4850550D01*
X-1882650Y4840180D01*
X-1887730Y4831290D01*
X-1893820Y4825360D01*
X-1901950Y4820920D01*
X-1922270D01*
G01X-1545840Y3197880D02*
X-1539750Y3206770D01*
X-1532640Y3211220D01*
X-1524510Y3212700D01*
X-1514350Y3209740D01*
X-1507240Y3202330D01*
X-1505200Y3193440D01*
X-1506220Y3184550D01*
X-1510280Y3177140D01*
X-1530600Y3162320D01*
X-1539750Y3151950D01*
X-1545840Y3137130D01*
X-1547880Y3123800D01*
X-1505200D01*
G01X-1514350Y2655170D02*
Y2744070D01*
X-1551940Y2680360D01*
X-1501140D01*
G01X-1548890Y3610210D02*
X-1542800Y3599840D01*
X-1534670Y3593910D01*
X-1525520Y3592430D01*
X-1517400Y3593910D01*
X-1509270Y3601320D01*
X-1504190Y3610210D01*
X-1503170Y3619100D01*
X-1505200Y3629470D01*
X-1512320Y3636880D01*
X-1519430Y3639840D01*
X-1528570D01*
G01X-1519430D02*
X-1513330Y3644290D01*
X-1508250Y3651690D01*
X-1506220Y3660590D01*
X-1508250Y3669480D01*
X-1513330Y3676880D01*
X-1522480Y3681330D01*
X-1531620Y3679850D01*
X-1540760Y3673920D01*
G01X-1559560Y4529700D02*
Y4618600D01*
X-1571750Y4600820D01*
G01Y4529700D02*
X-1547370D01*
G01X-1515870Y4547480D02*
X-1509780Y4537110D01*
X-1501650Y4531180D01*
X-1492500Y4529700D01*
X-1484380Y4531180D01*
X-1476250Y4538590D01*
X-1471170Y4547480D01*
X-1470150Y4556370D01*
X-1472180Y4566740D01*
X-1479300Y4574150D01*
X-1486410Y4577110D01*
X-1495550D01*
G01X-1486410D02*
X-1480310Y4581560D01*
X-1475230Y4588960D01*
X-1473200Y4597860D01*
X-1475230Y4606750D01*
X-1480310Y4614150D01*
X-1489460Y4618600D01*
X-1498600Y4617120D01*
X-1507740Y4611190D01*
G01X-1578860Y4135140D02*
X-1572770Y4144030D01*
X-1565660Y4148480D01*
X-1557530Y4149960D01*
X-1547370Y4147000D01*
X-1540260Y4139590D01*
X-1538220Y4130700D01*
X-1539240Y4121810D01*
X-1543300Y4114400D01*
X-1563620Y4099580D01*
X-1572770Y4089210D01*
X-1578860Y4074390D01*
X-1580900Y4061060D01*
X-1538220D01*
G01X-1495550D02*
X-1493520Y4080320D01*
X-1490470Y4096620D01*
X-1486410Y4111440D01*
X-1481330Y4127730D01*
X-1473200Y4149960D01*
X-1513840D01*
G01X-1592580Y4818380D02*
X-1600710Y4819860D01*
X-1607820Y4825790D01*
X-1613920Y4834680D01*
X-1617980Y4845050D01*
X-1620010Y4856900D01*
Y4868760D01*
X-1617980Y4880610D01*
X-1613920Y4890980D01*
X-1607820Y4899870D01*
X-1600710Y4905800D01*
X-1592580Y4907280D01*
X-1584450Y4905800D01*
X-1577340Y4899870D01*
X-1571240Y4890980D01*
X-1567180Y4880610D01*
X-1565150Y4868760D01*
Y4856900D01*
X-1567180Y4845050D01*
X-1571240Y4834680D01*
X-1577340Y4825790D01*
X-1584450Y4819860D01*
X-1592580Y4818380D01*
G01X-1584450Y4842090D02*
X-1572260Y4818380D01*
G01X-1526540Y4907280D02*
Y4818380D01*
G01X-1549910Y4907280D02*
X-1503170D01*
G01X-1460500Y4818380D02*
Y4858380D01*
X-1480820Y4907280D01*
G01X-1440180D02*
X-1460500Y4858380D01*
G01X2674620Y-179070D02*
Y-90170D01*
X2662430Y-107950D01*
G01Y-179070D02*
X2686810D01*
G01X2721360Y-142030D02*
X2728470Y-131660D01*
X2734560Y-125730D01*
X2742690Y-122770D01*
X2749800Y-125730D01*
X2754880Y-131660D01*
X2758950Y-140550D01*
X2759960Y-150920D01*
X2758950Y-159810D01*
X2754880Y-168700D01*
X2748790Y-176110D01*
X2741680Y-179070D01*
X2733550Y-176110D01*
X2726440Y-167220D01*
X2722370Y-153880D01*
X2721360Y-139070D01*
X2723390Y-119810D01*
X2726440Y-109430D01*
X2731520Y-99060D01*
X2738630Y-91650D01*
X2745740Y-90170D01*
X2752850Y-93130D01*
X2757930Y-100540D01*
G01X2806700Y-182030D02*
X2804670Y-180550D01*
Y-177590D01*
X2806700Y-176110D01*
X2808730Y-177590D01*
Y-180550D01*
X2806700Y-182030D01*
G01X2853440Y-104990D02*
X2859530Y-96100D01*
X2866640Y-91650D01*
X2874770Y-90170D01*
X2884930Y-93130D01*
X2892040Y-100540D01*
X2894080Y-109430D01*
X2893060Y-118320D01*
X2889000Y-125730D01*
X2868680Y-140550D01*
X2859530Y-150920D01*
X2853440Y-165740D01*
X2851400Y-179070D01*
X2894080D01*
G01X2919480Y-142030D02*
X2926590Y-131660D01*
X2932680Y-125730D01*
X2940810Y-122770D01*
X2947920Y-125730D01*
X2953000Y-131660D01*
X2957070Y-140550D01*
X2958080Y-150920D01*
X2957070Y-159810D01*
X2953000Y-168700D01*
X2946910Y-176110D01*
X2939800Y-179070D01*
X2931670Y-176110D01*
X2924560Y-167220D01*
X2920490Y-153880D01*
X2919480Y-139070D01*
X2921510Y-119810D01*
X2924560Y-109430D01*
X2929640Y-99060D01*
X2936750Y-91650D01*
X2943860Y-90170D01*
X2950970Y-93130D01*
X2956050Y-100540D01*
G01X2985520Y-104990D02*
X2991610Y-96100D01*
X2998720Y-91650D01*
X3006850Y-90170D01*
X3017010Y-93130D01*
X3024120Y-100540D01*
X3026160Y-109430D01*
X3025140Y-118320D01*
X3021080Y-125730D01*
X3000760Y-140550D01*
X2991610Y-150920D01*
X2985520Y-165740D01*
X2983480Y-179070D01*
X3026160D01*
G01X2766570Y8706480D02*
X2772660Y8699080D01*
X2779780Y8694630D01*
X2788920Y8693150D01*
X2798060Y8696110D01*
X2805180Y8702040D01*
X2810260Y8712410D01*
X2811270Y8724260D01*
X2809240Y8736120D01*
X2804160Y8743530D01*
X2797050Y8749450D01*
X2789940Y8750930D01*
X2782820Y8749450D01*
X2773680Y8743530D01*
X2776730Y8782050D01*
X2804160D01*
G01X2835660Y8730190D02*
X2842770Y8740560D01*
X2848860Y8746490D01*
X2856990Y8749450D01*
X2864100Y8746490D01*
X2869180Y8740560D01*
X2873250Y8731670D01*
X2874260Y8721300D01*
X2873250Y8712410D01*
X2869180Y8703520D01*
X2863090Y8696110D01*
X2855980Y8693150D01*
X2847850Y8696110D01*
X2840740Y8705000D01*
X2836670Y8718340D01*
X2835660Y8733150D01*
X2837690Y8752410D01*
X2840740Y8762790D01*
X2845820Y8773160D01*
X2852930Y8780570D01*
X2860040Y8782050D01*
X2867150Y8779090D01*
X2872230Y8771680D01*
G01X3931410Y298450D02*
Y387350D01*
X3893820Y323640D01*
X3944620D01*
G01X5957320Y4193750D02*
X5964430Y4204120D01*
X5970520Y4210050D01*
X5978650Y4213010D01*
X5985760Y4210050D01*
X5990840Y4204120D01*
X5994910Y4195230D01*
X5995920Y4184860D01*
X5994910Y4175970D01*
X5990840Y4167080D01*
X5984750Y4159670D01*
X5977640Y4156710D01*
X5969510Y4159670D01*
X5962400Y4168560D01*
X5958330Y4181900D01*
X5957320Y4196710D01*
X5959350Y4215970D01*
X5962400Y4226350D01*
X5967480Y4236720D01*
X5974590Y4244130D01*
X5981700Y4245610D01*
X5988810Y4242650D01*
X5993890Y4235240D01*
G01X6023360Y4230790D02*
X6029450Y4239680D01*
X6036560Y4244130D01*
X6044690Y4245610D01*
X6054850Y4242650D01*
X6061960Y4235240D01*
X6064000Y4226350D01*
X6062980Y4217460D01*
X6058920Y4210050D01*
X6038600Y4195230D01*
X6029450Y4184860D01*
X6023360Y4170040D01*
X6021320Y4156710D01*
X6064000D01*
G01X6108700Y4153750D02*
X6106670Y4155230D01*
Y4158190D01*
X6108700Y4159670D01*
X6110730Y4158190D01*
Y4155230D01*
X6108700Y4153750D01*
G01X6155440Y4193750D02*
X6162550Y4204120D01*
X6168640Y4210050D01*
X6176770Y4213010D01*
X6183880Y4210050D01*
X6188960Y4204120D01*
X6193030Y4195230D01*
X6194040Y4184860D01*
X6193030Y4175970D01*
X6188960Y4167080D01*
X6182870Y4159670D01*
X6175760Y4156710D01*
X6167630Y4159670D01*
X6160520Y4168560D01*
X6156450Y4181900D01*
X6155440Y4196710D01*
X6157470Y4215970D01*
X6160520Y4226350D01*
X6165600Y4236720D01*
X6172710Y4244130D01*
X6179820Y4245610D01*
X6186930Y4242650D01*
X6192010Y4235240D01*
G01X6240780Y4156710D02*
Y4245610D01*
X6228590Y4227830D01*
G01Y4156710D02*
X6252970D01*
G01X7087110Y1612050D02*
Y1700950D01*
X7107430D01*
X7115560Y1696500D01*
X7121650Y1690580D01*
X7126730Y1681690D01*
X7130800Y1671310D01*
X7131810Y1656500D01*
X7130800Y1641680D01*
X7126730Y1631310D01*
X7121650Y1622420D01*
X7115560Y1616490D01*
X7107430Y1612050D01*
X7087110D01*
G01X7195820D02*
X7155180D01*
Y1700950D01*
X7195820D01*
G01X7179560Y1657980D02*
X7155180D01*
G01X7220200Y1623900D02*
X7228330Y1616490D01*
X7237480Y1612050D01*
X7245600D01*
X7253730Y1616490D01*
X7259830Y1623900D01*
X7262880Y1634280D01*
X7260840Y1644650D01*
X7255760Y1653540D01*
X7246620Y1659460D01*
X7234430Y1662430D01*
X7227320Y1668350D01*
X7224270Y1678720D01*
X7226300Y1689100D01*
X7231380Y1696500D01*
X7238490Y1700950D01*
X7245600D01*
X7252720Y1697990D01*
X7258810Y1690580D01*
G01X7295390Y1700950D02*
X7319770D01*
G01X7307580D02*
Y1612050D01*
G01X7295390D02*
X7319770D01*
G01X7379720Y1656500D02*
X7400040D01*
Y1629830D01*
X7393940Y1620940D01*
X7386830Y1615010D01*
X7376670Y1612050D01*
X7366510Y1615010D01*
X7359400Y1620940D01*
X7353300Y1629830D01*
X7349230Y1640200D01*
X7347200Y1652050D01*
Y1662430D01*
X7349230Y1671310D01*
X7353300Y1681690D01*
X7359400Y1690580D01*
X7365490Y1696500D01*
X7373620Y1700950D01*
X7380730D01*
X7388860Y1697990D01*
X7394960Y1692060D01*
G01X7416290Y1612050D02*
Y1700950D01*
X7463030Y1612050D01*
Y1700950D01*
G01X7594090Y1693540D02*
X7588000Y1697990D01*
X7580880Y1700950D01*
X7572760D01*
X7563610Y1696500D01*
X7556500Y1689100D01*
X7551420Y1680210D01*
X7547350Y1665390D01*
X7546340Y1652050D01*
X7548370Y1638720D01*
X7551420Y1629830D01*
X7557520Y1620940D01*
X7564630Y1615010D01*
X7571740Y1612050D01*
X7578850D01*
X7585960Y1615010D01*
X7592060Y1619460D01*
X7597140Y1625380D01*
G01X7617460Y1612050D02*
Y1700950D01*
X7642860D01*
X7650990Y1696500D01*
X7656070Y1690580D01*
X7658100Y1678720D01*
X7656070Y1666870D01*
X7649970Y1659460D01*
X7642860Y1655020D01*
X7617460D01*
G01X7642860D02*
X7658100Y1612050D01*
G01X7703820D02*
X7695690Y1613530D01*
X7688580Y1619460D01*
X7682480Y1628350D01*
X7678420Y1638720D01*
X7676390Y1650570D01*
Y1662430D01*
X7678420Y1674280D01*
X7682480Y1684650D01*
X7688580Y1693540D01*
X7695690Y1699470D01*
X7703820Y1700950D01*
X7711950Y1699470D01*
X7719060Y1693540D01*
X7725160Y1684650D01*
X7729220Y1674280D01*
X7731250Y1662430D01*
Y1650570D01*
X7729220Y1638720D01*
X7725160Y1628350D01*
X7719060Y1619460D01*
X7711950Y1613530D01*
X7703820Y1612050D01*
G01X7748520Y1623900D02*
X7756650Y1616490D01*
X7765800Y1612050D01*
X7773920D01*
X7782050Y1616490D01*
X7788150Y1623900D01*
X7791200Y1634280D01*
X7789160Y1644650D01*
X7784080Y1653540D01*
X7774940Y1659460D01*
X7762750Y1662430D01*
X7755640Y1668350D01*
X7752590Y1678720D01*
X7754620Y1689100D01*
X7759700Y1696500D01*
X7766810Y1700950D01*
X7773920D01*
X7781040Y1697990D01*
X7787130Y1690580D01*
G01X7814560Y1623900D02*
X7822690Y1616490D01*
X7831840Y1612050D01*
X7839960D01*
X7848090Y1616490D01*
X7854190Y1623900D01*
X7857240Y1634280D01*
X7855200Y1644650D01*
X7850120Y1653540D01*
X7840980Y1659460D01*
X7828790Y1662430D01*
X7821680Y1668350D01*
X7818630Y1678720D01*
X7820660Y1689100D01*
X7825740Y1696500D01*
X7832850Y1700950D01*
X7839960D01*
X7847080Y1697990D01*
X7853170Y1690580D01*
G01X7946640Y1623900D02*
X7954770Y1616490D01*
X7963920Y1612050D01*
X7972040D01*
X7980170Y1616490D01*
X7986270Y1623900D01*
X7989320Y1634280D01*
X7987280Y1644650D01*
X7982200Y1653540D01*
X7973060Y1659460D01*
X7960870Y1662430D01*
X7953760Y1668350D01*
X7950710Y1678720D01*
X7952740Y1689100D01*
X7957820Y1696500D01*
X7964930Y1700950D01*
X7972040D01*
X7979160Y1697990D01*
X7985250Y1690580D01*
G01X8054340Y1612050D02*
X8013700D01*
Y1700950D01*
X8054340D01*
G01X8038080Y1657980D02*
X8013700D01*
G01X8122410Y1693540D02*
X8116320Y1697990D01*
X8109200Y1700950D01*
X8101080D01*
X8091930Y1696500D01*
X8084820Y1689100D01*
X8079740Y1680210D01*
X8075670Y1665390D01*
X8074660Y1652050D01*
X8076690Y1638720D01*
X8079740Y1629830D01*
X8085840Y1620940D01*
X8092950Y1615010D01*
X8100060Y1612050D01*
X8107170D01*
X8114280Y1615010D01*
X8120380Y1619460D01*
X8125460Y1625380D01*
G01X8166100Y1700950D02*
Y1612050D01*
G01X8142730Y1700950D02*
X8189470D01*
G01X8219950D02*
X8244330D01*
G01X8232140D02*
Y1612050D01*
G01X8219950D02*
X8244330D01*
G01X8298180D02*
X8290050Y1613530D01*
X8282940Y1619460D01*
X8276840Y1628350D01*
X8272780Y1638720D01*
X8270750Y1650570D01*
Y1662430D01*
X8272780Y1674280D01*
X8276840Y1684650D01*
X8282940Y1693540D01*
X8290050Y1699470D01*
X8298180Y1700950D01*
X8306310Y1699470D01*
X8313420Y1693540D01*
X8319520Y1684650D01*
X8323580Y1674280D01*
X8325610Y1662430D01*
Y1650570D01*
X8323580Y1638720D01*
X8319520Y1628350D01*
X8313420Y1619460D01*
X8306310Y1613530D01*
X8298180Y1612050D01*
G01X8340850D02*
Y1700950D01*
X8387590Y1612050D01*
Y1700950D01*
G01X8518650Y1693540D02*
X8512560Y1697990D01*
X8505440Y1700950D01*
X8497320D01*
X8488170Y1696500D01*
X8481060Y1689100D01*
X8475980Y1680210D01*
X8471910Y1665390D01*
X8470900Y1652050D01*
X8472930Y1638720D01*
X8475980Y1629830D01*
X8482080Y1620940D01*
X8489190Y1615010D01*
X8496300Y1612050D01*
X8503410D01*
X8510520Y1615010D01*
X8516620Y1619460D01*
X8521700Y1625380D01*
G01X8541000Y1612050D02*
Y1700950D01*
G01X8583680D02*
Y1612050D01*
G01Y1656500D02*
X8541000D01*
G01X8602980Y1612050D02*
X8628380Y1700950D01*
X8653780Y1612050D01*
G01X8644640Y1643160D02*
X8612120D01*
G01X8674100Y1612050D02*
Y1700950D01*
X8699500D01*
X8707630Y1696500D01*
X8712710Y1690580D01*
X8714740Y1678720D01*
X8712710Y1666870D01*
X8706610Y1659460D01*
X8699500Y1655020D01*
X8674100D01*
G01X8699500D02*
X8714740Y1612050D01*
G01X8760460Y1700950D02*
Y1612050D01*
G01X8737090Y1700950D02*
X8783830D01*
G01X7045960Y1582420D02*
X7106920D01*
G01X7112000D02*
X7172960D01*
G01X7178040D02*
X7239000D01*
G01X7244080D02*
X7305040D01*
G01X7310120D02*
X7371080D01*
G01X7376160D02*
X7437120D01*
G01X7442200D02*
X7503160D01*
G01X7508240D02*
X7569200D01*
G01X7574280D02*
X7635240D01*
G01X7640320D02*
X7701280D01*
G01X7706360D02*
X7767320D01*
G01X7772400D02*
X7833360D01*
G01X7838440D02*
X7899400D01*
G01X7904480D02*
X7965440D01*
G01X7970520D02*
X8031480D01*
G01X8036560D02*
X8097520D01*
G01X8102600D02*
X8163560D01*
G01X8168640D02*
X8229600D01*
G01X8234680D02*
X8295640D01*
G01X8300720D02*
X8361680D01*
G01X8366760D02*
X8427720D01*
G01X8432800D02*
X8493760D01*
G01X8498840D02*
X8559800D01*
G01X8564880D02*
X8625840D01*
G01X8630920D02*
X8691880D01*
G01X8696960D02*
X8757920D01*
G01X8763000D02*
X8823960D01*
G01X7142480Y1523150D02*
Y1434250D01*
G01X7119110Y1523150D02*
X7165850D01*
G01X7208520Y1434250D02*
X7200390Y1435730D01*
X7193280Y1441660D01*
X7187180Y1450550D01*
X7183120Y1460920D01*
X7181090Y1472770D01*
Y1484630D01*
X7183120Y1496480D01*
X7187180Y1506850D01*
X7193280Y1515740D01*
X7200390Y1521670D01*
X7208520Y1523150D01*
X7216650Y1521670D01*
X7223760Y1515740D01*
X7229860Y1506850D01*
X7233920Y1496480D01*
X7235950Y1484630D01*
Y1472770D01*
X7233920Y1460920D01*
X7229860Y1450550D01*
X7223760Y1441660D01*
X7216650Y1435730D01*
X7208520Y1434250D01*
G01X7274560Y1523150D02*
Y1434250D01*
G01X7251190Y1523150D02*
X7297930D01*
G01X7315200Y1434250D02*
X7340600Y1523150D01*
X7366000Y1434250D01*
G01X7356860Y1465360D02*
X7324340D01*
G01X7386320Y1523150D02*
Y1434250D01*
X7426960D01*
G01X7538720Y1523150D02*
Y1434250D01*
G01X7515350Y1523150D02*
X7562090D01*
G01X7583420Y1434250D02*
Y1523150D01*
G01X7626100D02*
Y1434250D01*
G01Y1478700D02*
X7583420D01*
G01X7658610Y1523150D02*
X7682990D01*
G01X7670800D02*
Y1434250D01*
G01X7658610D02*
X7682990D01*
G01X7759190Y1515740D02*
X7753100Y1520190D01*
X7745980Y1523150D01*
X7737860D01*
X7728710Y1518700D01*
X7721600Y1511300D01*
X7716520Y1502410D01*
X7712450Y1487590D01*
X7711440Y1474250D01*
X7713470Y1460920D01*
X7716520Y1452030D01*
X7722620Y1443140D01*
X7729730Y1437210D01*
X7736840Y1434250D01*
X7743950D01*
X7751060Y1437210D01*
X7757160Y1441660D01*
X7762240Y1447580D01*
G01X7780530Y1434250D02*
Y1523150D01*
G01X7819140D02*
X7780530Y1468330D01*
G01X7825230Y1434250D02*
X7797800Y1493510D01*
G01X7845550Y1434250D02*
Y1523150D01*
X7892290Y1434250D01*
Y1523150D01*
G01X7955280Y1434250D02*
X7914640D01*
Y1523150D01*
X7955280D01*
G01X7939020Y1480180D02*
X7914640D01*
G01X7979660Y1446100D02*
X7987790Y1438690D01*
X7996940Y1434250D01*
X8005060D01*
X8013190Y1438690D01*
X8019290Y1446100D01*
X8022340Y1456480D01*
X8020300Y1466850D01*
X8015220Y1475740D01*
X8006080Y1481660D01*
X7993890Y1484630D01*
X7986780Y1490550D01*
X7983730Y1500920D01*
X7985760Y1511300D01*
X7990840Y1518700D01*
X7997950Y1523150D01*
X8005060D01*
X8012180Y1520190D01*
X8018270Y1512780D01*
G01X8045700Y1446100D02*
X8053830Y1438690D01*
X8062980Y1434250D01*
X8071100D01*
X8079230Y1438690D01*
X8085330Y1446100D01*
X8088380Y1456480D01*
X8086340Y1466850D01*
X8081260Y1475740D01*
X8072120Y1481660D01*
X8059930Y1484630D01*
X8052820Y1490550D01*
X8049770Y1500920D01*
X8051800Y1511300D01*
X8056880Y1518700D01*
X8063990Y1523150D01*
X8071100D01*
X8078220Y1520190D01*
X8084310Y1512780D01*
G01X8199120Y1523150D02*
X8190990Y1520190D01*
X8184900Y1512780D01*
X8180830Y1503890D01*
X8177780Y1492030D01*
X8176770Y1478700D01*
X8177780Y1465360D01*
X8180830Y1453510D01*
X8184900Y1444620D01*
X8190990Y1437210D01*
X8199120Y1434250D01*
X8207250Y1437210D01*
X8213340Y1444620D01*
X8217410Y1453510D01*
X8220460Y1465360D01*
X8221470Y1478700D01*
X8220460Y1492030D01*
X8217410Y1503890D01*
X8213340Y1512780D01*
X8207250Y1520190D01*
X8199120Y1523150D01*
G01X8265160Y1431290D02*
X8263130Y1432770D01*
Y1435730D01*
X8265160Y1437210D01*
X8267190Y1435730D01*
Y1432770D01*
X8265160Y1431290D01*
G01X8311900Y1508330D02*
X8317990Y1517220D01*
X8325100Y1521670D01*
X8333230Y1523150D01*
X8343390Y1520190D01*
X8350500Y1512780D01*
X8352540Y1503890D01*
X8351520Y1495000D01*
X8347460Y1487590D01*
X8327140Y1472770D01*
X8317990Y1462400D01*
X8311900Y1447580D01*
X8309860Y1434250D01*
X8352540D01*
G01X8377940Y1471290D02*
X8385050Y1481660D01*
X8391140Y1487590D01*
X8399270Y1490550D01*
X8406380Y1487590D01*
X8411460Y1481660D01*
X8415530Y1472770D01*
X8416540Y1462400D01*
X8415530Y1453510D01*
X8411460Y1444620D01*
X8405370Y1437210D01*
X8398260Y1434250D01*
X8390130Y1437210D01*
X8383020Y1446100D01*
X8378950Y1459440D01*
X8377940Y1474250D01*
X8379970Y1493510D01*
X8383020Y1503890D01*
X8388100Y1514260D01*
X8395210Y1521670D01*
X8402320Y1523150D01*
X8409430Y1520190D01*
X8414510Y1512780D01*
G01X8475470Y1434250D02*
Y1523150D01*
X8437880Y1459440D01*
X8488680D01*
G01X8510020Y1508330D02*
X8516110Y1517220D01*
X8523220Y1521670D01*
X8531350Y1523150D01*
X8541510Y1520190D01*
X8548620Y1512780D01*
X8550660Y1503890D01*
X8549640Y1495000D01*
X8545580Y1487590D01*
X8525260Y1472770D01*
X8516110Y1462400D01*
X8510020Y1447580D01*
X8507980Y1434250D01*
X8550660D01*
G01X8634980D02*
Y1523150D01*
X8661400Y1449070D01*
X8687820Y1523150D01*
Y1434250D01*
G01X8701020D02*
Y1523150D01*
X8727440Y1449070D01*
X8753860Y1523150D01*
Y1434250D01*
G01X7871460Y7137650D02*
X7782560D01*
X7800340Y7125460D01*
G01X7871460D02*
Y7149840D01*
G01X7841830Y7190480D02*
Y7216900D01*
G01X7797380Y7250430D02*
X7788490Y7256520D01*
X7784040Y7263630D01*
X7782560Y7271760D01*
X7785520Y7281920D01*
X7792930Y7289030D01*
X7801820Y7291070D01*
X7810710Y7290050D01*
X7818120Y7285990D01*
X7832940Y7265670D01*
X7843310Y7256520D01*
X7858130Y7250430D01*
X7871460Y7248390D01*
Y7291070D01*
G01X8773160Y2327330D02*
Y2238430D01*
X8813800D01*
G01X8840220Y2312510D02*
X8846310Y2321400D01*
X8853420Y2325850D01*
X8861550Y2327330D01*
X8871710Y2324370D01*
X8878820Y2316960D01*
X8880860Y2308070D01*
X8879840Y2299180D01*
X8875780Y2291770D01*
X8855460Y2276950D01*
X8846310Y2266580D01*
X8840220Y2251760D01*
X8838180Y2238430D01*
X8880860D01*
G01X8925560Y2235470D02*
X8923530Y2236950D01*
Y2239910D01*
X8925560Y2241390D01*
X8927590Y2239910D01*
Y2236950D01*
X8925560Y2235470D01*
G01Y2275470D02*
X8923530Y2276950D01*
Y2279920D01*
X8925560Y2281400D01*
X8927590Y2279920D01*
Y2276950D01*
X8925560Y2275470D01*
G01X9065770Y2285840D02*
X9069830Y2290290D01*
X9072880Y2297690D01*
X9074910Y2308070D01*
X9072880Y2316960D01*
X9068820Y2322880D01*
X9061700Y2327330D01*
X9034270D01*
Y2238430D01*
X9067800D01*
X9074910Y2244360D01*
X9078980Y2253250D01*
X9081010Y2263620D01*
X9078980Y2273990D01*
X9072880Y2282880D01*
X9065770Y2285840D01*
X9034270D01*
G01X9123680Y2238430D02*
X9115550Y2239910D01*
X9108440Y2245840D01*
X9102340Y2254730D01*
X9098280Y2265100D01*
X9096250Y2276950D01*
Y2288810D01*
X9098280Y2300660D01*
X9102340Y2311030D01*
X9108440Y2319920D01*
X9115550Y2325850D01*
X9123680Y2327330D01*
X9131810Y2325850D01*
X9138920Y2319920D01*
X9145020Y2311030D01*
X9149080Y2300660D01*
X9151110Y2288810D01*
Y2276950D01*
X9149080Y2265100D01*
X9145020Y2254730D01*
X9138920Y2245840D01*
X9131810Y2239910D01*
X9123680Y2238430D01*
G01X9189720Y2327330D02*
Y2238430D01*
G01X9166350Y2327330D02*
X9213090D01*
G01X9255760D02*
Y2238430D01*
G01X9232390Y2327330D02*
X9279130D01*
G01X9321800Y2238430D02*
X9313670Y2239910D01*
X9306560Y2245840D01*
X9300460Y2254730D01*
X9296400Y2265100D01*
X9294370Y2276950D01*
Y2288810D01*
X9296400Y2300660D01*
X9300460Y2311030D01*
X9306560Y2319920D01*
X9313670Y2325850D01*
X9321800Y2327330D01*
X9329930Y2325850D01*
X9337040Y2319920D01*
X9343140Y2311030D01*
X9347200Y2300660D01*
X9349230Y2288810D01*
Y2276950D01*
X9347200Y2265100D01*
X9343140Y2254730D01*
X9337040Y2245840D01*
X9329930Y2239910D01*
X9321800Y2238430D01*
G01X9361420D02*
Y2327330D01*
X9387840Y2253250D01*
X9414260Y2327330D01*
Y2238430D01*
G01X9542270Y2319920D02*
X9536180Y2324370D01*
X9529060Y2327330D01*
X9520940D01*
X9511790Y2322880D01*
X9504680Y2315480D01*
X9499600Y2306590D01*
X9495530Y2291770D01*
X9494520Y2278430D01*
X9496550Y2265100D01*
X9499600Y2256210D01*
X9505700Y2247320D01*
X9512810Y2241390D01*
X9519920Y2238430D01*
X9527030D01*
X9534140Y2241390D01*
X9540240Y2245840D01*
X9545320Y2251760D01*
G01X9585960Y2238430D02*
X9577830Y2239910D01*
X9570720Y2245840D01*
X9564620Y2254730D01*
X9560560Y2265100D01*
X9558530Y2276950D01*
Y2288810D01*
X9560560Y2300660D01*
X9564620Y2311030D01*
X9570720Y2319920D01*
X9577830Y2325850D01*
X9585960Y2327330D01*
X9594090Y2325850D01*
X9601200Y2319920D01*
X9607300Y2311030D01*
X9611360Y2300660D01*
X9613390Y2288810D01*
Y2276950D01*
X9611360Y2265100D01*
X9607300Y2254730D01*
X9601200Y2245840D01*
X9594090Y2239910D01*
X9585960Y2238430D01*
G01X9628630D02*
Y2327330D01*
X9675370Y2238430D01*
Y2327330D01*
G01X9695690Y2238430D02*
Y2327330D01*
X9716010D01*
X9724140Y2322880D01*
X9730230Y2316960D01*
X9735310Y2308070D01*
X9739380Y2297690D01*
X9740390Y2282880D01*
X9739380Y2268060D01*
X9735310Y2257690D01*
X9730230Y2248800D01*
X9724140Y2242870D01*
X9716010Y2238430D01*
X9695690D01*
G01X9761730Y2327330D02*
Y2263620D01*
X9765790Y2250280D01*
X9773920Y2241390D01*
X9784080Y2238430D01*
X9794240Y2241390D01*
X9802370Y2250280D01*
X9806430Y2263620D01*
Y2327330D01*
G01X9872470Y2319920D02*
X9866380Y2324370D01*
X9859260Y2327330D01*
X9851140D01*
X9841990Y2322880D01*
X9834880Y2315480D01*
X9829800Y2306590D01*
X9825730Y2291770D01*
X9824720Y2278430D01*
X9826750Y2265100D01*
X9829800Y2256210D01*
X9835900Y2247320D01*
X9843010Y2241390D01*
X9850120Y2238430D01*
X9857230D01*
X9864340Y2241390D01*
X9870440Y2245840D01*
X9875520Y2251760D01*
G01X9916160Y2327330D02*
Y2238430D01*
G01X9892790Y2327330D02*
X9939530D01*
G01X9982200Y2238430D02*
X9974070Y2239910D01*
X9966960Y2245840D01*
X9960860Y2254730D01*
X9956800Y2265100D01*
X9954770Y2276950D01*
Y2288810D01*
X9956800Y2300660D01*
X9960860Y2311030D01*
X9966960Y2319920D01*
X9974070Y2325850D01*
X9982200Y2327330D01*
X9990330Y2325850D01*
X9997440Y2319920D01*
X10003540Y2311030D01*
X10007600Y2300660D01*
X10009630Y2288810D01*
Y2276950D01*
X10007600Y2265100D01*
X10003540Y2254730D01*
X9997440Y2245840D01*
X9990330Y2239910D01*
X9982200Y2238430D01*
G01X10027920D02*
Y2327330D01*
X10053320D01*
X10061450Y2322880D01*
X10066530Y2316960D01*
X10068560Y2305100D01*
X10066530Y2293250D01*
X10060430Y2285840D01*
X10053320Y2281400D01*
X10027920D01*
G01X10053320D02*
X10068560Y2238430D01*
G01X10167110Y2268060D02*
X10193530D01*
G01X10334750Y2319920D02*
X10328660Y2324370D01*
X10321540Y2327330D01*
X10313420D01*
X10304270Y2322880D01*
X10297160Y2315480D01*
X10292080Y2306590D01*
X10288010Y2291770D01*
X10287000Y2278430D01*
X10289030Y2265100D01*
X10292080Y2256210D01*
X10298180Y2247320D01*
X10305290Y2241390D01*
X10312400Y2238430D01*
X10319510D01*
X10326620Y2241390D01*
X10332720Y2245840D01*
X10337800Y2251760D01*
G01X10378440Y2238430D02*
X10370310Y2239910D01*
X10363200Y2245840D01*
X10357100Y2254730D01*
X10353040Y2265100D01*
X10351010Y2276950D01*
Y2288810D01*
X10353040Y2300660D01*
X10357100Y2311030D01*
X10363200Y2319920D01*
X10370310Y2325850D01*
X10378440Y2327330D01*
X10386570Y2325850D01*
X10393680Y2319920D01*
X10399780Y2311030D01*
X10403840Y2300660D01*
X10405870Y2288810D01*
Y2276950D01*
X10403840Y2265100D01*
X10399780Y2254730D01*
X10393680Y2245840D01*
X10386570Y2239910D01*
X10378440Y2238430D01*
G01X10424160D02*
Y2327330D01*
X10448540D01*
X10456670Y2322880D01*
X10462770Y2312510D01*
X10464800Y2300660D01*
X10462770Y2288810D01*
X10457690Y2279920D01*
X10448540Y2275470D01*
X10424160D01*
G01X10490200Y2238430D02*
Y2327330D01*
X10514580D01*
X10522710Y2322880D01*
X10528810Y2312510D01*
X10530840Y2300660D01*
X10528810Y2288810D01*
X10523730Y2279920D01*
X10514580Y2275470D01*
X10490200D01*
G01X10596880Y2238430D02*
X10556240D01*
Y2327330D01*
X10596880D01*
G01X10580620Y2284360D02*
X10556240D01*
G01X10622280Y2238430D02*
Y2327330D01*
X10647680D01*
X10655810Y2322880D01*
X10660890Y2316960D01*
X10662920Y2305100D01*
X10660890Y2293250D01*
X10654790Y2285840D01*
X10647680Y2281400D01*
X10622280D01*
G01X10647680D02*
X10662920Y2238430D01*
G01X10774680Y2327330D02*
X10766550Y2324370D01*
X10760460Y2316960D01*
X10756390Y2308070D01*
X10753340Y2296210D01*
X10752330Y2282880D01*
X10753340Y2269540D01*
X10756390Y2257690D01*
X10760460Y2248800D01*
X10766550Y2241390D01*
X10774680Y2238430D01*
X10782810Y2241390D01*
X10788900Y2248800D01*
X10792970Y2257690D01*
X10796020Y2269540D01*
X10797030Y2282880D01*
X10796020Y2296210D01*
X10792970Y2308070D01*
X10788900Y2316960D01*
X10782810Y2324370D01*
X10774680Y2327330D01*
G01X10840720Y2235470D02*
X10838690Y2236950D01*
Y2239910D01*
X10840720Y2241390D01*
X10842750Y2239910D01*
Y2236950D01*
X10840720Y2235470D01*
G01X10906760Y2327330D02*
X10898630Y2324370D01*
X10892540Y2316960D01*
X10888470Y2308070D01*
X10885420Y2296210D01*
X10884410Y2282880D01*
X10885420Y2269540D01*
X10888470Y2257690D01*
X10892540Y2248800D01*
X10898630Y2241390D01*
X10906760Y2238430D01*
X10914890Y2241390D01*
X10920980Y2248800D01*
X10925050Y2257690D01*
X10928100Y2269540D01*
X10929110Y2282880D01*
X10928100Y2296210D01*
X10925050Y2308070D01*
X10920980Y2316960D01*
X10914890Y2324370D01*
X10906760Y2327330D01*
G01X10950450Y2256210D02*
X10956540Y2245840D01*
X10964670Y2239910D01*
X10973820Y2238430D01*
X10981940Y2239910D01*
X10990070Y2247320D01*
X10995150Y2256210D01*
X10996170Y2265100D01*
X10994140Y2275470D01*
X10987020Y2282880D01*
X10979910Y2285840D01*
X10970770D01*
G01X10979910D02*
X10986010Y2290290D01*
X10991090Y2297690D01*
X10993120Y2306590D01*
X10991090Y2315480D01*
X10986010Y2322880D01*
X10976860Y2327330D01*
X10967720Y2325850D01*
X10958580Y2319920D01*
G01X11038840Y2327330D02*
X11030710Y2324370D01*
X11024620Y2316960D01*
X11020550Y2308070D01*
X11017500Y2296210D01*
X11016490Y2282880D01*
X11017500Y2269540D01*
X11020550Y2257690D01*
X11024620Y2248800D01*
X11030710Y2241390D01*
X11038840Y2238430D01*
X11046970Y2241390D01*
X11053060Y2248800D01*
X11057130Y2257690D01*
X11060180Y2269540D01*
X11061190Y2282880D01*
X11060180Y2296210D01*
X11057130Y2308070D01*
X11053060Y2316960D01*
X11046970Y2324370D01*
X11038840Y2327330D01*
G01X11082530Y2251760D02*
X11088620Y2244360D01*
X11095740Y2239910D01*
X11104880Y2238430D01*
X11114020Y2241390D01*
X11121140Y2247320D01*
X11126220Y2257690D01*
X11127230Y2269540D01*
X11125200Y2281400D01*
X11120120Y2288810D01*
X11113010Y2294730D01*
X11105900Y2296210D01*
X11098780Y2294730D01*
X11089640Y2288810D01*
X11092690Y2327330D01*
X11120120D01*
G01X11210540Y2238430D02*
Y2327330D01*
X11236960Y2253250D01*
X11263380Y2327330D01*
Y2238430D01*
G01X11276580D02*
Y2327330D01*
X11303000Y2253250D01*
X11329420Y2327330D01*
Y2238430D01*
G01X8903210Y1824140D02*
X8947910Y1889330D01*
G01X8925560Y1901180D02*
Y1812280D01*
G01X8947910Y1824140D02*
X8903210Y1889330D01*
G01X8895080Y1856730D02*
X8956040D01*
G01X9102340Y1838950D02*
X9110470Y1831540D01*
X9119620Y1827100D01*
X9127740D01*
X9135870Y1831540D01*
X9141970Y1838950D01*
X9145020Y1849330D01*
X9142980Y1859700D01*
X9137900Y1868590D01*
X9128760Y1874510D01*
X9116570Y1877480D01*
X9109460Y1883400D01*
X9106410Y1893770D01*
X9108440Y1904150D01*
X9113520Y1911550D01*
X9120630Y1916000D01*
X9127740D01*
X9134860Y1913040D01*
X9140950Y1905630D01*
G01X9167370Y1916000D02*
Y1852290D01*
X9171430Y1838950D01*
X9179560Y1830060D01*
X9189720Y1827100D01*
X9199880Y1830060D01*
X9208010Y1838950D01*
X9212070Y1852290D01*
Y1916000D01*
G01X9235440Y1827100D02*
Y1916000D01*
X9260840D01*
X9268970Y1911550D01*
X9274050Y1905630D01*
X9276080Y1893770D01*
X9274050Y1881920D01*
X9267950Y1874510D01*
X9260840Y1870070D01*
X9235440D01*
G01X9260840D02*
X9276080Y1827100D01*
G01X9302500D02*
Y1916000D01*
X9341100D01*
G01X9326880Y1873030D02*
X9302500D01*
G01X9362440Y1827100D02*
X9387840Y1916000D01*
X9413240Y1827100D01*
G01X9404100Y1858210D02*
X9371580D01*
G01X9476230Y1908590D02*
X9470140Y1913040D01*
X9463020Y1916000D01*
X9454900D01*
X9445750Y1911550D01*
X9438640Y1904150D01*
X9433560Y1895260D01*
X9429490Y1880440D01*
X9428480Y1867100D01*
X9430510Y1853770D01*
X9433560Y1844880D01*
X9439660Y1835990D01*
X9446770Y1830060D01*
X9453880Y1827100D01*
X9460990D01*
X9468100Y1830060D01*
X9474200Y1834510D01*
X9479280Y1840430D01*
G01X9540240Y1827100D02*
X9499600D01*
Y1916000D01*
X9540240D01*
G01X9523980Y1873030D02*
X9499600D01*
G01X9638790Y1856730D02*
X9665210D01*
G01X9758680Y1827100D02*
X9784080Y1916000D01*
X9809480Y1827100D01*
G01X9800340Y1858210D02*
X9767820D01*
G01X9837930Y1916000D02*
X9862310D01*
G01X9850120D02*
Y1827100D01*
G01X9837930D02*
X9862310D01*
G01X9895840D02*
Y1916000D01*
X9921240D01*
X9929370Y1911550D01*
X9934450Y1905630D01*
X9936480Y1893770D01*
X9934450Y1881920D01*
X9928350Y1874510D01*
X9921240Y1870070D01*
X9895840D01*
G01X9921240D02*
X9936480Y1827100D01*
G01X10048240Y1916000D02*
X10040110Y1913040D01*
X10034020Y1905630D01*
X10029950Y1896740D01*
X10026900Y1884880D01*
X10025890Y1871550D01*
X10026900Y1858210D01*
X10029950Y1846360D01*
X10034020Y1837470D01*
X10040110Y1830060D01*
X10048240Y1827100D01*
X10056370Y1830060D01*
X10062460Y1837470D01*
X10066530Y1846360D01*
X10069580Y1858210D01*
X10070590Y1871550D01*
X10069580Y1884880D01*
X10066530Y1896740D01*
X10062460Y1905630D01*
X10056370Y1913040D01*
X10048240Y1916000D01*
G01X10153900Y1827100D02*
Y1916000D01*
X10180320Y1841920D01*
X10206740Y1916000D01*
Y1827100D01*
G01X10219940D02*
Y1916000D01*
X10246360Y1841920D01*
X10272780Y1916000D01*
Y1827100D01*
G01X8903210Y4478990D02*
X8947910Y4544180D01*
G01X8925560Y4556030D02*
Y4467130D01*
G01X8947910Y4478990D02*
X8903210Y4544180D01*
G01X8895080Y4511580D02*
X8956040D01*
G01X9101330Y4481950D02*
Y4570850D01*
X9121650D01*
X9129780Y4566400D01*
X9135870Y4560480D01*
X9140950Y4551590D01*
X9145020Y4541210D01*
X9146030Y4526400D01*
X9145020Y4511580D01*
X9140950Y4501210D01*
X9135870Y4492320D01*
X9129780Y4486390D01*
X9121650Y4481950D01*
X9101330D01*
G01X9177530Y4570850D02*
X9201910D01*
G01X9189720D02*
Y4481950D01*
G01X9177530D02*
X9201910D01*
G01X9276080D02*
X9235440D01*
Y4570850D01*
X9276080D01*
G01X9259820Y4527880D02*
X9235440D01*
G01X9301480Y4570850D02*
Y4481950D01*
X9342120D01*
G01X9408160D02*
X9367520D01*
Y4570850D01*
X9408160D01*
G01X9391900Y4527880D02*
X9367520D01*
G01X9476230Y4563440D02*
X9470140Y4567890D01*
X9463020Y4570850D01*
X9454900D01*
X9445750Y4566400D01*
X9438640Y4559000D01*
X9433560Y4550110D01*
X9429490Y4535290D01*
X9428480Y4521950D01*
X9430510Y4508620D01*
X9433560Y4499730D01*
X9439660Y4490840D01*
X9446770Y4484910D01*
X9453880Y4481950D01*
X9460990D01*
X9468100Y4484910D01*
X9474200Y4489360D01*
X9479280Y4495280D01*
G01X9519920Y4570850D02*
Y4481950D01*
G01X9496550Y4570850D02*
X9543290D01*
G01X9565640Y4481950D02*
Y4570850D01*
X9591040D01*
X9599170Y4566400D01*
X9604250Y4560480D01*
X9606280Y4548620D01*
X9604250Y4536770D01*
X9598150Y4529360D01*
X9591040Y4524920D01*
X9565640D01*
G01X9591040D02*
X9606280Y4481950D01*
G01X9639810Y4570850D02*
X9664190D01*
G01X9652000D02*
Y4481950D01*
G01X9639810D02*
X9664190D01*
G01X9740390Y4563440D02*
X9734300Y4567890D01*
X9727180Y4570850D01*
X9719060D01*
X9709910Y4566400D01*
X9702800Y4559000D01*
X9697720Y4550110D01*
X9693650Y4535290D01*
X9692640Y4521950D01*
X9694670Y4508620D01*
X9697720Y4499730D01*
X9703820Y4490840D01*
X9710930Y4484910D01*
X9718040Y4481950D01*
X9725150D01*
X9732260Y4484910D01*
X9738360Y4489360D01*
X9743440Y4495280D01*
G01X9836910Y4511580D02*
X9863330D01*
G01X9962900Y4481950D02*
Y4570850D01*
X10001500D01*
G01X9987280Y4527880D02*
X9962900D01*
G01X10027920Y4481950D02*
Y4570850D01*
X10053320D01*
X10061450Y4566400D01*
X10066530Y4560480D01*
X10068560Y4548620D01*
X10066530Y4536770D01*
X10060430Y4529360D01*
X10053320Y4524920D01*
X10027920D01*
G01X10053320D02*
X10068560Y4481950D01*
G01X10101070Y4511580D02*
X10127490D01*
G01X10192510Y4481950D02*
Y4570850D01*
X10154920Y4507140D01*
X10205720D01*
G01X10312400Y4570850D02*
X10304270Y4567890D01*
X10298180Y4560480D01*
X10294110Y4551590D01*
X10291060Y4539730D01*
X10290050Y4526400D01*
X10291060Y4513060D01*
X10294110Y4501210D01*
X10298180Y4492320D01*
X10304270Y4484910D01*
X10312400Y4481950D01*
X10320530Y4484910D01*
X10326620Y4492320D01*
X10330690Y4501210D01*
X10333740Y4513060D01*
X10334750Y4526400D01*
X10333740Y4539730D01*
X10330690Y4551590D01*
X10326620Y4560480D01*
X10320530Y4567890D01*
X10312400Y4570850D01*
G01X10378440Y4478990D02*
X10376410Y4480470D01*
Y4483430D01*
X10378440Y4484910D01*
X10380470Y4483430D01*
Y4480470D01*
X10378440Y4478990D01*
G01X10425180Y4556030D02*
X10431270Y4564920D01*
X10438380Y4569370D01*
X10446510Y4570850D01*
X10456670Y4567890D01*
X10463780Y4560480D01*
X10465820Y4551590D01*
X10464800Y4542700D01*
X10460740Y4535290D01*
X10440420Y4520470D01*
X10431270Y4510100D01*
X10425180Y4495280D01*
X10423140Y4481950D01*
X10465820D01*
G01X10510520Y4570850D02*
X10502390Y4567890D01*
X10496300Y4560480D01*
X10492230Y4551590D01*
X10489180Y4539730D01*
X10488170Y4526400D01*
X10489180Y4513060D01*
X10492230Y4501210D01*
X10496300Y4492320D01*
X10502390Y4484910D01*
X10510520Y4481950D01*
X10518650Y4484910D01*
X10524740Y4492320D01*
X10528810Y4501210D01*
X10531860Y4513060D01*
X10532870Y4526400D01*
X10531860Y4539730D01*
X10528810Y4551590D01*
X10524740Y4560480D01*
X10518650Y4567890D01*
X10510520Y4570850D01*
G01X10554210Y4499730D02*
X10560300Y4489360D01*
X10568430Y4483430D01*
X10577580Y4481950D01*
X10585700Y4483430D01*
X10593830Y4490840D01*
X10598910Y4499730D01*
X10599930Y4508620D01*
X10597900Y4518990D01*
X10590780Y4526400D01*
X10583670Y4529360D01*
X10574530D01*
G01X10583670D02*
X10589770Y4533810D01*
X10594850Y4541210D01*
X10596880Y4550110D01*
X10594850Y4559000D01*
X10589770Y4566400D01*
X10580620Y4570850D01*
X10571480Y4569370D01*
X10562340Y4563440D01*
G01X10623300Y4556030D02*
X10629390Y4564920D01*
X10636500Y4569370D01*
X10644630Y4570850D01*
X10654790Y4567890D01*
X10661900Y4560480D01*
X10663940Y4551590D01*
X10662920Y4542700D01*
X10658860Y4535290D01*
X10638540Y4520470D01*
X10629390Y4510100D01*
X10623300Y4495280D01*
X10621260Y4481950D01*
X10663940D01*
G01X10748260D02*
Y4570850D01*
X10774680Y4496770D01*
X10801100Y4570850D01*
Y4481950D01*
G01X10814300D02*
Y4570850D01*
X10840720Y4496770D01*
X10867140Y4570850D01*
Y4481950D01*
G01X8903210Y7044940D02*
X8947910Y7110130D01*
G01X8925560Y7121980D02*
Y7033080D01*
G01X8947910Y7044940D02*
X8903210Y7110130D01*
G01X8895080Y7077530D02*
X8956040D01*
G01X9102340Y7059750D02*
X9110470Y7052340D01*
X9119620Y7047900D01*
X9127740D01*
X9135870Y7052340D01*
X9141970Y7059750D01*
X9145020Y7070130D01*
X9142980Y7080500D01*
X9137900Y7089390D01*
X9128760Y7095310D01*
X9116570Y7098280D01*
X9109460Y7104200D01*
X9106410Y7114570D01*
X9108440Y7124950D01*
X9113520Y7132350D01*
X9120630Y7136800D01*
X9127740D01*
X9134860Y7133840D01*
X9140950Y7126430D01*
G01X9167370Y7136800D02*
Y7073090D01*
X9171430Y7059750D01*
X9179560Y7050860D01*
X9189720Y7047900D01*
X9199880Y7050860D01*
X9208010Y7059750D01*
X9212070Y7073090D01*
Y7136800D01*
G01X9235440Y7047900D02*
Y7136800D01*
X9260840D01*
X9268970Y7132350D01*
X9274050Y7126430D01*
X9276080Y7114570D01*
X9274050Y7102720D01*
X9267950Y7095310D01*
X9260840Y7090870D01*
X9235440D01*
G01X9260840D02*
X9276080Y7047900D01*
G01X9302500D02*
Y7136800D01*
X9341100D01*
G01X9326880Y7093830D02*
X9302500D01*
G01X9362440Y7047900D02*
X9387840Y7136800D01*
X9413240Y7047900D01*
G01X9404100Y7079010D02*
X9371580D01*
G01X9476230Y7129390D02*
X9470140Y7133840D01*
X9463020Y7136800D01*
X9454900D01*
X9445750Y7132350D01*
X9438640Y7124950D01*
X9433560Y7116060D01*
X9429490Y7101240D01*
X9428480Y7087900D01*
X9430510Y7074570D01*
X9433560Y7065680D01*
X9439660Y7056790D01*
X9446770Y7050860D01*
X9453880Y7047900D01*
X9460990D01*
X9468100Y7050860D01*
X9474200Y7055310D01*
X9479280Y7061230D01*
G01X9540240Y7047900D02*
X9499600D01*
Y7136800D01*
X9540240D01*
G01X9523980Y7093830D02*
X9499600D01*
G01X9638790Y7077530D02*
X9665210D01*
G01X9758680Y7047900D02*
X9784080Y7136800D01*
X9809480Y7047900D01*
G01X9800340Y7079010D02*
X9767820D01*
G01X9837930Y7136800D02*
X9862310D01*
G01X9850120D02*
Y7047900D01*
G01X9837930D02*
X9862310D01*
G01X9895840D02*
Y7136800D01*
X9921240D01*
X9929370Y7132350D01*
X9934450Y7126430D01*
X9936480Y7114570D01*
X9934450Y7102720D01*
X9928350Y7095310D01*
X9921240Y7090870D01*
X9895840D01*
G01X9921240D02*
X9936480Y7047900D01*
G01X10048240Y7136800D02*
X10040110Y7133840D01*
X10034020Y7126430D01*
X10029950Y7117540D01*
X10026900Y7105680D01*
X10025890Y7092350D01*
X10026900Y7079010D01*
X10029950Y7067160D01*
X10034020Y7058270D01*
X10040110Y7050860D01*
X10048240Y7047900D01*
X10056370Y7050860D01*
X10062460Y7058270D01*
X10066530Y7067160D01*
X10069580Y7079010D01*
X10070590Y7092350D01*
X10069580Y7105680D01*
X10066530Y7117540D01*
X10062460Y7126430D01*
X10056370Y7133840D01*
X10048240Y7136800D01*
G01X10153900Y7047900D02*
Y7136800D01*
X10180320Y7062720D01*
X10206740Y7136800D01*
Y7047900D01*
G01X10219940D02*
Y7136800D01*
X10246360Y7062720D01*
X10272780Y7136800D01*
Y7047900D01*
G01X8773160Y6814370D02*
Y6725470D01*
X8813800D01*
G01X8859520D02*
Y6814370D01*
X8847330Y6796590D01*
G01Y6725470D02*
X8871710D01*
G01X8925560Y6722510D02*
X8923530Y6723990D01*
Y6726950D01*
X8925560Y6728430D01*
X8927590Y6726950D01*
Y6723990D01*
X8925560Y6722510D01*
G01Y6762510D02*
X8923530Y6763990D01*
Y6766960D01*
X8925560Y6768440D01*
X8927590Y6766960D01*
Y6763990D01*
X8925560Y6762510D01*
G01X9057640Y6814370D02*
Y6725470D01*
G01X9034270Y6814370D02*
X9081010D01*
G01X9123680Y6725470D02*
X9115550Y6726950D01*
X9108440Y6732880D01*
X9102340Y6741770D01*
X9098280Y6752140D01*
X9096250Y6763990D01*
Y6775850D01*
X9098280Y6787700D01*
X9102340Y6798070D01*
X9108440Y6806960D01*
X9115550Y6812890D01*
X9123680Y6814370D01*
X9131810Y6812890D01*
X9138920Y6806960D01*
X9145020Y6798070D01*
X9149080Y6787700D01*
X9151110Y6775850D01*
Y6763990D01*
X9149080Y6752140D01*
X9145020Y6741770D01*
X9138920Y6732880D01*
X9131810Y6726950D01*
X9123680Y6725470D01*
G01X9169400D02*
Y6814370D01*
X9193780D01*
X9201910Y6809920D01*
X9208010Y6799550D01*
X9210040Y6787700D01*
X9208010Y6775850D01*
X9202930Y6766960D01*
X9193780Y6762510D01*
X9169400D01*
G01X9344150Y6806960D02*
X9338060Y6811410D01*
X9330940Y6814370D01*
X9322820D01*
X9313670Y6809920D01*
X9306560Y6802520D01*
X9301480Y6793630D01*
X9297410Y6778810D01*
X9296400Y6765470D01*
X9298430Y6752140D01*
X9301480Y6743250D01*
X9307580Y6734360D01*
X9314690Y6728430D01*
X9321800Y6725470D01*
X9328910D01*
X9336020Y6728430D01*
X9342120Y6732880D01*
X9347200Y6738800D01*
G01X9387840Y6725470D02*
X9379710Y6726950D01*
X9372600Y6732880D01*
X9366500Y6741770D01*
X9362440Y6752140D01*
X9360410Y6763990D01*
Y6775850D01*
X9362440Y6787700D01*
X9366500Y6798070D01*
X9372600Y6806960D01*
X9379710Y6812890D01*
X9387840Y6814370D01*
X9395970Y6812890D01*
X9403080Y6806960D01*
X9409180Y6798070D01*
X9413240Y6787700D01*
X9415270Y6775850D01*
Y6763990D01*
X9413240Y6752140D01*
X9409180Y6741770D01*
X9403080Y6732880D01*
X9395970Y6726950D01*
X9387840Y6725470D01*
G01X9430510D02*
Y6814370D01*
X9477250Y6725470D01*
Y6814370D01*
G01X9497570Y6725470D02*
Y6814370D01*
X9517890D01*
X9526020Y6809920D01*
X9532110Y6804000D01*
X9537190Y6795110D01*
X9541260Y6784730D01*
X9542270Y6769920D01*
X9541260Y6755100D01*
X9537190Y6744730D01*
X9532110Y6735840D01*
X9526020Y6729910D01*
X9517890Y6725470D01*
X9497570D01*
G01X9563610Y6814370D02*
Y6750660D01*
X9567670Y6737320D01*
X9575800Y6728430D01*
X9585960Y6725470D01*
X9596120Y6728430D01*
X9604250Y6737320D01*
X9608310Y6750660D01*
Y6814370D01*
G01X9674350Y6806960D02*
X9668260Y6811410D01*
X9661140Y6814370D01*
X9653020D01*
X9643870Y6809920D01*
X9636760Y6802520D01*
X9631680Y6793630D01*
X9627610Y6778810D01*
X9626600Y6765470D01*
X9628630Y6752140D01*
X9631680Y6743250D01*
X9637780Y6734360D01*
X9644890Y6728430D01*
X9652000Y6725470D01*
X9659110D01*
X9666220Y6728430D01*
X9672320Y6732880D01*
X9677400Y6738800D01*
G01X9718040Y6814370D02*
Y6725470D01*
G01X9694670Y6814370D02*
X9741410D01*
G01X9784080Y6725470D02*
X9775950Y6726950D01*
X9768840Y6732880D01*
X9762740Y6741770D01*
X9758680Y6752140D01*
X9756650Y6763990D01*
Y6775850D01*
X9758680Y6787700D01*
X9762740Y6798070D01*
X9768840Y6806960D01*
X9775950Y6812890D01*
X9784080Y6814370D01*
X9792210Y6812890D01*
X9799320Y6806960D01*
X9805420Y6798070D01*
X9809480Y6787700D01*
X9811510Y6775850D01*
Y6763990D01*
X9809480Y6752140D01*
X9805420Y6741770D01*
X9799320Y6732880D01*
X9792210Y6726950D01*
X9784080Y6725470D01*
G01X9829800D02*
Y6814370D01*
X9855200D01*
X9863330Y6809920D01*
X9868410Y6804000D01*
X9870440Y6792140D01*
X9868410Y6780290D01*
X9862310Y6772880D01*
X9855200Y6768440D01*
X9829800D01*
G01X9855200D02*
X9870440Y6725470D01*
G01X9968990Y6755100D02*
X9995410D01*
G01X10136630Y6806960D02*
X10130540Y6811410D01*
X10123420Y6814370D01*
X10115300D01*
X10106150Y6809920D01*
X10099040Y6802520D01*
X10093960Y6793630D01*
X10089890Y6778810D01*
X10088880Y6765470D01*
X10090910Y6752140D01*
X10093960Y6743250D01*
X10100060Y6734360D01*
X10107170Y6728430D01*
X10114280Y6725470D01*
X10121390D01*
X10128500Y6728430D01*
X10134600Y6732880D01*
X10139680Y6738800D01*
G01X10180320Y6725470D02*
X10172190Y6726950D01*
X10165080Y6732880D01*
X10158980Y6741770D01*
X10154920Y6752140D01*
X10152890Y6763990D01*
Y6775850D01*
X10154920Y6787700D01*
X10158980Y6798070D01*
X10165080Y6806960D01*
X10172190Y6812890D01*
X10180320Y6814370D01*
X10188450Y6812890D01*
X10195560Y6806960D01*
X10201660Y6798070D01*
X10205720Y6787700D01*
X10207750Y6775850D01*
Y6763990D01*
X10205720Y6752140D01*
X10201660Y6741770D01*
X10195560Y6732880D01*
X10188450Y6726950D01*
X10180320Y6725470D01*
G01X10226040D02*
Y6814370D01*
X10250420D01*
X10258550Y6809920D01*
X10264650Y6799550D01*
X10266680Y6787700D01*
X10264650Y6775850D01*
X10259570Y6766960D01*
X10250420Y6762510D01*
X10226040D01*
G01X10292080Y6725470D02*
Y6814370D01*
X10316460D01*
X10324590Y6809920D01*
X10330690Y6799550D01*
X10332720Y6787700D01*
X10330690Y6775850D01*
X10325610Y6766960D01*
X10316460Y6762510D01*
X10292080D01*
G01X10398760Y6725470D02*
X10358120D01*
Y6814370D01*
X10398760D01*
G01X10382500Y6771400D02*
X10358120D01*
G01X10424160Y6725470D02*
Y6814370D01*
X10449560D01*
X10457690Y6809920D01*
X10462770Y6804000D01*
X10464800Y6792140D01*
X10462770Y6780290D01*
X10456670Y6772880D01*
X10449560Y6768440D01*
X10424160D01*
G01X10449560D02*
X10464800Y6725470D01*
G01X10576560Y6814370D02*
X10568430Y6811410D01*
X10562340Y6804000D01*
X10558270Y6795110D01*
X10555220Y6783250D01*
X10554210Y6769920D01*
X10555220Y6756580D01*
X10558270Y6744730D01*
X10562340Y6735840D01*
X10568430Y6728430D01*
X10576560Y6725470D01*
X10584690Y6728430D01*
X10590780Y6735840D01*
X10594850Y6744730D01*
X10597900Y6756580D01*
X10598910Y6769920D01*
X10597900Y6783250D01*
X10594850Y6795110D01*
X10590780Y6804000D01*
X10584690Y6811410D01*
X10576560Y6814370D01*
G01X10642600Y6722510D02*
X10640570Y6723990D01*
Y6726950D01*
X10642600Y6728430D01*
X10644630Y6726950D01*
Y6723990D01*
X10642600Y6722510D01*
G01X10708640Y6814370D02*
X10700510Y6811410D01*
X10694420Y6804000D01*
X10690350Y6795110D01*
X10687300Y6783250D01*
X10686290Y6769920D01*
X10687300Y6756580D01*
X10690350Y6744730D01*
X10694420Y6735840D01*
X10700510Y6728430D01*
X10708640Y6725470D01*
X10716770Y6728430D01*
X10722860Y6735840D01*
X10726930Y6744730D01*
X10729980Y6756580D01*
X10730990Y6769920D01*
X10729980Y6783250D01*
X10726930Y6795110D01*
X10722860Y6804000D01*
X10716770Y6811410D01*
X10708640Y6814370D01*
G01X10752330Y6743250D02*
X10758420Y6732880D01*
X10766550Y6726950D01*
X10775700Y6725470D01*
X10783820Y6726950D01*
X10791950Y6734360D01*
X10797030Y6743250D01*
X10798050Y6752140D01*
X10796020Y6762510D01*
X10788900Y6769920D01*
X10781790Y6772880D01*
X10772650D01*
G01X10781790D02*
X10787890Y6777330D01*
X10792970Y6784730D01*
X10795000Y6793630D01*
X10792970Y6802520D01*
X10787890Y6809920D01*
X10778740Y6814370D01*
X10769600Y6812890D01*
X10760460Y6806960D01*
G01X10840720Y6814370D02*
X10832590Y6811410D01*
X10826500Y6804000D01*
X10822430Y6795110D01*
X10819380Y6783250D01*
X10818370Y6769920D01*
X10819380Y6756580D01*
X10822430Y6744730D01*
X10826500Y6735840D01*
X10832590Y6728430D01*
X10840720Y6725470D01*
X10848850Y6728430D01*
X10854940Y6735840D01*
X10859010Y6744730D01*
X10862060Y6756580D01*
X10863070Y6769920D01*
X10862060Y6783250D01*
X10859010Y6795110D01*
X10854940Y6804000D01*
X10848850Y6811410D01*
X10840720Y6814370D01*
G01X10884410Y6738800D02*
X10890500Y6731400D01*
X10897620Y6726950D01*
X10906760Y6725470D01*
X10915900Y6728430D01*
X10923020Y6734360D01*
X10928100Y6744730D01*
X10929110Y6756580D01*
X10927080Y6768440D01*
X10922000Y6775850D01*
X10914890Y6781770D01*
X10907780Y6783250D01*
X10900660Y6781770D01*
X10891520Y6775850D01*
X10894570Y6814370D01*
X10922000D01*
G01X11012420Y6725470D02*
Y6814370D01*
X11038840Y6740290D01*
X11065260Y6814370D01*
Y6725470D01*
G01X11078460D02*
Y6814370D01*
X11104880Y6740290D01*
X11131300Y6814370D01*
Y6725470D01*
G54D15*
G01X-3855720Y2465310D02*
Y5676900D01*
X-1325880D01*
Y2465310D01*
X-3855720D01*
G01Y2933940D02*
X-1325880D01*
G01X-3855720Y3871200D02*
X-1325880D01*
G01X-3855720Y3402570D02*
X-1325880D01*
G01X-3855720Y4339830D02*
X-1325880D01*
G01X-3855720Y5072620D02*
X-1325880D01*
G01X-3855720Y4935460D02*
X-1325880D01*
G01X-3855720Y4808460D02*
X-1325880D01*
G01X-3388360Y4917680D02*
Y2465310D01*
G01X-2392680Y4917680D02*
Y2465310D01*
G01X-1727200Y4917680D02*
Y2465310D01*
G01X5617640Y1080820D02*
G02X17640I-2800000J3130494D01*
G01Y7341820D01*
G02X5617640I2800000J-3130494D01*
G01Y1080820D01*
G01X17640Y7591820D02*
Y8987600D01*
G01X2684150Y8737600D02*
X17640D01*
G01X417640Y8800100D02*
X17640Y8737600D01*
X417640Y8675100D01*
Y8800100D01*
G01X2017730Y117400D02*
Y-384620D01*
G01X2569850Y-134620D02*
X2017730D01*
G01X2417730Y-72120D02*
X2017730Y-134620D01*
X2417730Y-197120D01*
Y-72120D01*
G01X2217640Y161320D02*
X3444030D01*
G03Y561320I0J200000D01*
G01X2217640D01*
G03Y161320I0J-200000D01*
G01Y7861320D02*
X3444030D01*
G03Y8261320I0J200000D01*
G01X2217640D01*
G03Y7861320I0J-200000D01*
G01X3109590Y-134620D02*
X3643930D01*
G01X3243930Y-197120D02*
X3643930Y-134620D01*
X3243930Y-72120D01*
Y-197120D01*
G01X3173380Y561320D02*
X4169220D01*
G01X3165010Y161320D02*
X4169220D01*
G01X2959730Y8737600D02*
X5617640D01*
G01X3643930Y117580D02*
Y-384620D01*
G01X3981720Y-238680D02*
X3919220Y161320D01*
X3856720Y-238680D01*
X3981720D01*
G01X3919220Y224160D02*
Y161320D01*
G01Y461640D02*
Y561320D01*
G01X3856720Y961320D02*
X3919220Y561320D01*
X3981720Y961320D01*
X3856720D01*
G01X4566860Y2882380D02*
Y2182380D01*
G03X4666860Y2082380I100000J0D01*
G01X4866860D01*
G03X4966860Y2182380I0J100000D01*
G01Y2882380D01*
G03X4866860Y2982380I-100000J0D01*
G01X4666860D01*
G03X4566860Y2882380I0J-100000D01*
G01X5217640Y8675100D02*
X5617640Y8737600D01*
X5217640Y8800100D01*
Y8675100D01*
G01X5867640Y1080820D02*
X6358700D01*
G01X6108700Y4082420D02*
Y1080820D01*
G01X6046200Y1480820D02*
X6108700Y1080820D01*
X6171200Y1480820D01*
X6046200D01*
G01X6108700Y4319900D02*
Y7341820D01*
G01X6171200Y6941820D02*
X6108700Y7341820D01*
X6046200Y6941820D01*
X6171200D01*
G01X5867640Y7341820D02*
X6358700D01*
G01X5617640Y7591820D02*
Y8987600D01*
G01X7172960Y2531230D02*
Y6432670D01*
X8696960D01*
Y2531230D01*
X7172960D01*
M02*
