M48
METRIC,TZ
T01C.4064
T02C.6096
T03C1.016
T04C3.2004
;LEADER: 12 
;HEADER: 
;CODE  : ASCII 
;FILE  : SAMD21_MODULE_v2-1-2.drl for  ... layers TOP and BOTTOM
;DESIGN: SAMD21_MODULE_v2.brd
;T01 Holesize 1. = 0.406400 Tolerance = +0.000000/-0.000000 PLATED MM Quantity = 40
;T02 Holesize 2. = 0.609600 Tolerance = +0.000000/-0.000000 PLATED MM Quantity = 3
;T03 Holesize 3. = 1.016000 Tolerance = +0.000000/-0.000000 PLATED MM Quantity = 2
;T04 Holesize 4. = 3.200400 Tolerance = +0.000000/-0.000000 NON_PLATED MM Quantity = 4
%
G90
T01
X2181860Y2849620
X4405200Y7509380
X1927860Y2762120
X4315930Y7421880
X949960Y7485380
X1242060
X1982520Y6422440
X1673860Y2674620
X1782520Y6519620
X4467860Y3931920
X3939540Y4114800
X3149640Y6125340
X1582520
X2895640Y6212840
X1381760
X543600Y2639100
Y2415580
X4640960Y4272660
X2181860Y2120900
X642620Y4518660
X4640960Y4739260
X2282190Y7325360
X2283460Y7673340
X3723640Y5950340
X1783960
X3469640Y6037840
X1983480
X1385240Y4518660
R02Y-125000
X2456180Y7213600
X2581180
X2898140
X3023140
X162560Y4518660
R02Y-125000
X5506720Y4272660
R02Y125000
T02
X2532380Y1170940
R02Y-200000
T03
X833120Y3942740
X5034280
T04
X406400Y1211580
X5207000
Y7213600
X406400
M30
