G04 ================== begin FILE IDENTIFICATION RECORD ==================*
G04 Layout Name:  SAMD21_MODULE_v2.brd*
G04 Film Name:    SMTOP*
G04 File Format:  Gerber RS274X*
G04 File Origin:  Cadence Allegro 16.6-S039*
G04 Origin Date:  Sat Apr 27 10:05:54 2019*
G04 *
G04 Layer:  VIA CLASS/SOLDERMASK_TOP*
G04 Layer:  PIN/SOLDERMASK_TOP*
G04 Layer:  DRC ERROR CLASS/SOLDERMASK_TOP*
G04 *
G04 Offset:    (0.0000 0.0000)*
G04 Mirror:    No*
G04 Mode:      Positive*
G04 Rotation:  0*
G04 FullContactRelief:  No*
G04 UndefLineWidth:     0.0000*
G04 ================== end FILE IDENTIFICATION RECORD ====================*
%FSLAX25Y25*MOMM*%
%IR0*IPPOS*OFA0.00000B0.00000*MIA0B0*SFA1.00000B1.00000*%
%ADD14R,.95X1.55*%
%ADD22R,1.55X.95*%
%ADD18R,1.2X2.*%
%ADD16R,1.2X1.2*%
%ADD15O,1.3X3.2*%
%ADD21O,3.2X1.3*%
%ADD17O,2.X6.2*%
%ADD20R,1.2X1.6*%
%ADD23O,2.X7.9*%
%ADD12C,1.1*%
%ADD11C,1.143*%
%ADD10C,3.2004*%
%ADD13R,2.032X2.032*%
%ADD19C,1.397*%
%LPD*%
G75*
G54D10*
X406400Y1211580D03*
Y7213600D03*
X5207000Y1211580D03*
Y7213600D03*
G54D11*
X162560Y4268660D03*
Y4393660D03*
Y4518660D03*
X1385240Y4268660D03*
Y4393660D03*
Y4518660D03*
X2581180Y7213600D03*
X2456180D03*
X3023140D03*
X2898140D03*
X5506720Y4522660D03*
Y4397660D03*
Y4272660D03*
G54D20*
X2545080Y4625340D03*
X2382520D03*
X2545080Y4828540D03*
X2382520D03*
G54D12*
X543600Y2415580D03*
Y2639100D03*
X642620Y4518660D03*
X949960Y7485380D03*
X1673860Y2674620D03*
X1783960Y5950340D03*
X1381760Y6212840D03*
X1582520Y6125340D03*
X1782520Y6519620D03*
X1242060Y7485380D03*
X2181860Y2120900D03*
X1927860Y2762120D03*
X2181860Y2849620D03*
X1983480Y6037840D03*
X1982520Y6422440D03*
X2283460Y7673340D03*
X2282190Y7325360D03*
X2895640Y6212840D03*
X3149640Y6125340D03*
X3939540Y4114800D03*
X3469640Y6037840D03*
X3723640Y5950340D03*
X4467860Y3931920D03*
X4640960Y4739260D03*
Y4272660D03*
X4315930Y7421880D03*
X4405200Y7509380D03*
G54D21*
X2547520Y5466000D03*
Y6266000D03*
Y6066000D03*
Y5866000D03*
Y5666000D03*
Y6466000D03*
G54D13*
X833120Y3942740D03*
X5034280D03*
G54D22*
X1872880Y7321550D03*
Y7128510D03*
X2136140Y7321550D03*
Y7128510D03*
G54D23*
X2895640Y4627320D03*
X3149640D03*
X2895640Y6741720D03*
X3149640D03*
X3469640Y4627320D03*
X3723640D03*
X3469640Y6741720D03*
X3723640D03*
X4287560D03*
X4607560D03*
G54D14*
X736640Y4790440D03*
X543600D03*
X906800D03*
X1463040D03*
X1270000D03*
X1099840D03*
G54D15*
X982520Y5166500D03*
Y6766500D03*
X1182520Y5166500D03*
X1382520D03*
X1582520D03*
X1782520D03*
X1182520Y6766500D03*
X1782520D03*
X1582520D03*
X1382520D03*
X1982520Y5166500D03*
X2182520D03*
X2382520D03*
X2182520Y6766500D03*
X1982520D03*
X2382520D03*
G54D16*
X949960Y7283720D03*
Y7158720D03*
X1232200Y7283720D03*
Y7158720D03*
X1514440Y7161260D03*
Y7286260D03*
G54D17*
X1673860Y1679880D03*
X1419860D03*
Y3429880D03*
X1673860D03*
X2435860Y1679880D03*
X2181860D03*
X1927860D03*
Y3429880D03*
X2181860D03*
X2435860D03*
X3197860Y1679880D03*
X2943860D03*
X2689860D03*
Y3429880D03*
X2943860D03*
X3197860D03*
X3959860Y1679880D03*
X3705860D03*
X3451860D03*
Y3429880D03*
X3705860D03*
X3959860D03*
X4721860Y1679880D03*
X4467860D03*
X4213860D03*
Y3429880D03*
X4467860D03*
X4721860D03*
G54D18*
X1315160Y7673340D03*
X1515160D03*
X1715160D03*
X1915160D03*
G54D19*
X2532380Y770940D03*
Y970940D03*
Y1170940D03*
M02*
