G04 ================== begin FILE IDENTIFICATION RECORD ==================*
G04 Layout Name:  SAMD21_MODULE_v2.brd*
G04 Film Name:    SSTOP*
G04 File Format:  Gerber RS274X*
G04 File Origin:  Cadence Allegro 16.6-S039*
G04 Origin Date:  Sat Apr 27 10:05:54 2019*
G04 *
G04 Layer:  REF DES/SILKSCREEN_TOP*
G04 Layer:  PACKAGE GEOMETRY/SILKSCREEN_TOP*
G04 Layer:  BOARD GEOMETRY/SILKSCREEN_TOP*
G04 *
G04 Offset:    (0.0000 0.0000)*
G04 Mirror:    No*
G04 Mode:      Positive*
G04 Rotation:  0*
G04 FullContactRelief:  No*
G04 UndefLineWidth:     0.0000*
G04 ================== end FILE IDENTIFICATION RECORD ====================*
%FSLAX25Y25*MOMM*%
%IR0*IPPOS*OFA0.00000B0.00000*MIA0B0*SFA1.00000B1.00000*%
%ADD10C,.2*%
%ADD11C,.1524*%
G75*
%LPD*%
G75*
G54D10*
G01X1310640Y1529080D02*
X165100D01*
Y3530600D01*
X1305560D01*
G01X162560Y4206240D02*
Y4145280D01*
X165100Y4142740D01*
X807720D01*
Y4645660D01*
X162560D01*
Y4582160D01*
G01X132080Y5181600D02*
Y6774180D01*
X2534920D01*
Y5173980D01*
X2532380Y5171440D01*
X142240D01*
X132080Y5181600D01*
G01X1019960Y7361220D02*
Y7081220D01*
X879960D01*
Y7361220D01*
X1019960D01*
G01X1385240Y4206240D02*
Y4145280D01*
X1387780Y4142740D01*
X2030400D01*
Y4645660D01*
X1385240D01*
Y4582160D01*
G01X1302200Y7361220D02*
Y7081220D01*
X1162200D01*
Y7361220D01*
X1302200D01*
G01X1444440Y7083760D02*
Y7363760D01*
X1584440D01*
Y7083760D01*
X1444440D01*
G01X2537460Y695960D02*
Y662940D01*
X2540000Y660400D01*
X3187700D01*
Y1262380D01*
X2534920D01*
Y1242060D01*
G01X2385060Y7208520D02*
X2324100D01*
X2321560Y7211060D01*
Y7856220D01*
X2324100Y7858760D01*
X2697480D01*
X2700020Y7856220D01*
Y7208520D01*
X2654300D01*
G01X2786380Y4493260D02*
X2788920Y4495800D01*
G01X2760980Y6962140D02*
Y4493260D01*
G01D02*
X2786380D01*
G01X2788920Y6962140D02*
X2760980D01*
G01X2827020Y7208520D02*
X2766060D01*
X2763520Y7211060D01*
Y7856220D01*
X2766060Y7858760D01*
X3139440D01*
X3141980Y7856220D01*
Y7208520D01*
X3096260D01*
G01X4859020Y4490720D02*
X3835400D01*
G01X4175760Y6962140D02*
X3837940D01*
G01X4719320Y6964680D02*
X4859020D01*
G01X4836160Y1531620D02*
X5466080D01*
Y3533140D01*
X4831080D01*
G01X4859020Y6964680D02*
Y4490720D01*
G01X5506720Y4585080D02*
Y4646040D01*
X5504180Y4648580D01*
X4861560D01*
Y4145660D01*
X5506720D01*
Y4209160D01*
G54D11*
G01X200660Y3574290D02*
X264370D01*
X277710Y3578350D01*
X286600Y3586480D01*
X289560Y3596640D01*
X286600Y3606800D01*
X277710Y3614930D01*
X264370Y3618990D01*
X200660D01*
G01X215480Y3643380D02*
X206590Y3649470D01*
X202140Y3656580D01*
X200660Y3664710D01*
X203620Y3674870D01*
X211030Y3681980D01*
X219920Y3684020D01*
X228810Y3683000D01*
X236220Y3678940D01*
X251040Y3658620D01*
X261410Y3649470D01*
X276230Y3643380D01*
X289560Y3641340D01*
Y3684020D01*
G01X241300Y4005580D02*
X250190Y4010660D01*
X256120Y4016760D01*
X259080Y4023870D01*
X256120Y4032000D01*
X250190Y4038090D01*
X241300Y4044190D01*
X229450Y4046220D01*
X170180D01*
G01X259080Y4089910D02*
X239820Y4091940D01*
X223520Y4094990D01*
X208700Y4099050D01*
X192410Y4104130D01*
X170180Y4112260D01*
Y4071620D01*
G01X144780Y6815330D02*
X208490D01*
X221830Y6819390D01*
X230720Y6827520D01*
X233680Y6837680D01*
X230720Y6847840D01*
X221830Y6855970D01*
X208490Y6860030D01*
X144780D01*
G01X233680Y6903720D02*
X144780D01*
X162560Y6891530D01*
G01X233680D02*
Y6915910D01*
G01X436880Y3874160D02*
X347980D01*
Y3899560D01*
X352430Y3907690D01*
X358350Y3912770D01*
X370210Y3914800D01*
X382060Y3912770D01*
X389470Y3906670D01*
X393910Y3899560D01*
Y3874160D01*
G01Y3899560D02*
X436880Y3914800D01*
G01Y3980840D02*
Y3940200D01*
X347980D01*
Y3980840D01*
G01X390950Y3964580D02*
Y3940200D01*
G01X436880Y4007260D02*
X347980D01*
Y4045860D01*
G01X390950Y4031640D02*
Y4007260D01*
G01X706120Y4069740D02*
X960120D01*
Y3815740D01*
X706120D01*
Y4069740D01*
G01X800140Y4699000D02*
X482640D01*
G01X800140Y4881880D02*
Y4699000D01*
G01X482640D02*
Y4881880D01*
G01X1163340Y4699000D02*
X845840D01*
G01D02*
Y4881880D01*
G01X497840Y4899660D02*
Y4988560D01*
X523240D01*
X531370Y4984110D01*
X536450Y4978190D01*
X538480Y4966330D01*
X536450Y4954480D01*
X530350Y4947070D01*
X523240Y4942630D01*
X497840D01*
G01X523240D02*
X538480Y4899660D01*
G01X584200D02*
Y4988560D01*
X572010Y4970780D01*
G01Y4899660D02*
X596390D01*
G01X482640Y4881880D02*
X800140D01*
G01X873760Y4902200D02*
Y4991100D01*
X899160D01*
X907290Y4986650D01*
X912370Y4980730D01*
X914400Y4968870D01*
X912370Y4957020D01*
X906270Y4949610D01*
X899160Y4945170D01*
X873760D01*
G01X899160D02*
X914400Y4902200D01*
G01X937770Y4915530D02*
X943860Y4908130D01*
X950980Y4903680D01*
X960120Y4902200D01*
X969260Y4905160D01*
X976380Y4911090D01*
X981460Y4921460D01*
X982470Y4933310D01*
X980440Y4945170D01*
X975360Y4952580D01*
X968250Y4958500D01*
X961140Y4959980D01*
X954020Y4958500D01*
X944880Y4952580D01*
X947930Y4991100D01*
X975360D01*
G01X845840Y4881880D02*
X1163340D01*
G01X995680Y7394960D02*
X906780D01*
Y7433560D01*
G01X949750Y7419340D02*
Y7394960D01*
G01X921600Y7461000D02*
X912710Y7467090D01*
X908260Y7474200D01*
X906780Y7482330D01*
X909740Y7492490D01*
X917150Y7499600D01*
X926040Y7501640D01*
X934930Y7500620D01*
X942340Y7496560D01*
X957160Y7476240D01*
X967530Y7467090D01*
X982350Y7461000D01*
X995680Y7458960D01*
Y7501640D01*
G01X1463980Y4005580D02*
X1472870Y4010660D01*
X1478800Y4016760D01*
X1481760Y4023870D01*
X1478800Y4032000D01*
X1472870Y4038090D01*
X1463980Y4044190D01*
X1452130Y4046220D01*
X1392860D01*
G01X1407680Y4072640D02*
X1398790Y4078730D01*
X1394340Y4085840D01*
X1392860Y4093970D01*
X1395820Y4104130D01*
X1403230Y4111240D01*
X1412120Y4113280D01*
X1421010Y4112260D01*
X1428420Y4108200D01*
X1443240Y4087880D01*
X1453610Y4078730D01*
X1468430Y4072640D01*
X1481760Y4070600D01*
Y4113280D01*
G01X1526540Y4699000D02*
X1209040D01*
G01X1526540Y4881880D02*
Y4699000D01*
G01X1209040D02*
Y4881880D01*
G01X1163340D02*
Y4699000D01*
G01X1231900Y4904740D02*
Y4993640D01*
X1257300D01*
X1265430Y4989190D01*
X1270510Y4983270D01*
X1272540Y4971410D01*
X1270510Y4959560D01*
X1264410Y4952150D01*
X1257300Y4947710D01*
X1231900D01*
G01X1257300D02*
X1272540Y4904740D01*
G01X1298960Y4978820D02*
X1305050Y4987710D01*
X1312160Y4992160D01*
X1320290Y4993640D01*
X1330450Y4990680D01*
X1337560Y4983270D01*
X1339600Y4974380D01*
X1338580Y4965490D01*
X1334520Y4958080D01*
X1314200Y4943260D01*
X1305050Y4932890D01*
X1298960Y4918070D01*
X1296920Y4904740D01*
X1339600D01*
G01X1209040Y4881880D02*
X1526540D01*
G01X1221740Y7617460D02*
X1230630Y7622540D01*
X1236560Y7628640D01*
X1239520Y7635750D01*
X1236560Y7643880D01*
X1230630Y7649970D01*
X1221740Y7656070D01*
X1209890Y7658100D01*
X1150620D01*
G01X1239520Y7703820D02*
X1150620D01*
X1168400Y7691630D01*
G01X1239520D02*
Y7716010D01*
G01X1277620Y7397500D02*
X1188720D01*
Y7436100D01*
G01X1231690Y7421880D02*
Y7397500D01*
G01X1277620Y7482840D02*
X1188720D01*
X1206500Y7470650D01*
G01X1277620D02*
Y7495030D01*
G01X1554480Y7394960D02*
X1465580D01*
Y7433560D01*
G01X1508550Y7419340D02*
Y7394960D01*
G01X1536700Y7457950D02*
X1547070Y7464040D01*
X1553000Y7472170D01*
X1554480Y7481320D01*
X1553000Y7489440D01*
X1545590Y7497570D01*
X1536700Y7502650D01*
X1527810Y7503670D01*
X1517440Y7501640D01*
X1510030Y7494520D01*
X1507070Y7487410D01*
Y7478270D01*
G01Y7487410D02*
X1502620Y7493510D01*
X1495220Y7498590D01*
X1486320Y7500620D01*
X1477430Y7498590D01*
X1470030Y7493510D01*
X1465580Y7484360D01*
X1467060Y7475220D01*
X1472990Y7466080D01*
G01X1673860Y7823200D02*
X1762760D01*
G01X1673860Y7799830D02*
Y7846570D01*
G01X1762760Y7867900D02*
X1673860Y7910580D01*
G01Y7867900D02*
X1762760Y7910580D01*
G01Y7932930D02*
X1673860D01*
Y7953250D01*
X1678310Y7961380D01*
X1684230Y7967470D01*
X1693120Y7972550D01*
X1703500Y7976620D01*
X1718310Y7977630D01*
X1733130Y7976620D01*
X1743500Y7972550D01*
X1752390Y7967470D01*
X1758320Y7961380D01*
X1762760Y7953250D01*
Y7932930D01*
G01X1564640Y7805420D02*
X1475740D01*
Y7830820D01*
X1480190Y7838950D01*
X1486110Y7844030D01*
X1497970Y7846060D01*
X1509820Y7844030D01*
X1517230Y7837930D01*
X1521670Y7830820D01*
Y7805420D01*
G01Y7830820D02*
X1564640Y7846060D01*
G01Y7870440D02*
X1475740Y7913120D01*
G01Y7870440D02*
X1564640Y7913120D01*
G01Y7935470D02*
X1475740D01*
Y7955790D01*
X1480190Y7963920D01*
X1486110Y7970010D01*
X1495000Y7975090D01*
X1505380Y7979160D01*
X1520190Y7980170D01*
X1535010Y7979160D01*
X1545380Y7975090D01*
X1554270Y7970010D01*
X1560200Y7963920D01*
X1564640Y7955790D01*
Y7935470D01*
G01X1319530Y7834380D02*
Y7854700D01*
X1346200D01*
X1355090Y7848600D01*
X1361020Y7841490D01*
X1363980Y7831330D01*
X1361020Y7821170D01*
X1355090Y7814060D01*
X1346200Y7807960D01*
X1335830Y7803890D01*
X1323980Y7801860D01*
X1313600D01*
X1304720Y7803890D01*
X1294340Y7807960D01*
X1285450Y7814060D01*
X1279530Y7820150D01*
X1275080Y7828280D01*
Y7835390D01*
X1278040Y7843520D01*
X1283970Y7849620D01*
G01X1363980Y7870950D02*
X1275080D01*
X1363980Y7917690D01*
X1275080D01*
G01X1363980Y7938010D02*
X1275080D01*
Y7958330D01*
X1279530Y7966460D01*
X1285450Y7972550D01*
X1294340Y7977630D01*
X1304720Y7981700D01*
X1319530Y7982710D01*
X1334350Y7981700D01*
X1344720Y7977630D01*
X1353610Y7972550D01*
X1359540Y7966460D01*
X1363980Y7958330D01*
Y7938010D01*
G01X2420620Y904240D02*
X2429510Y909320D01*
X2435440Y915420D01*
X2438400Y922530D01*
X2435440Y930660D01*
X2429510Y936750D01*
X2420620Y942850D01*
X2408770Y944880D01*
X2349500D01*
G01X2420620Y968250D02*
X2430990Y974340D01*
X2436920Y982470D01*
X2438400Y991620D01*
X2436920Y999740D01*
X2429510Y1007870D01*
X2420620Y1012950D01*
X2411730Y1013970D01*
X2401360Y1011940D01*
X2393950Y1004820D01*
X2390990Y997710D01*
Y988570D01*
G01Y997710D02*
X2386540Y1003810D01*
X2379140Y1008890D01*
X2370240Y1010920D01*
X2361350Y1008890D01*
X2353950Y1003810D01*
X2349500Y994660D01*
X2350980Y985520D01*
X2356910Y976380D01*
G01X2201670Y4846530D02*
X2195580Y4850980D01*
X2188460Y4853940D01*
X2180340D01*
X2171190Y4849490D01*
X2164080Y4842090D01*
X2159000Y4833200D01*
X2154930Y4818380D01*
X2153920Y4805040D01*
X2155950Y4791710D01*
X2159000Y4782820D01*
X2165100Y4773930D01*
X2172210Y4768000D01*
X2179320Y4765040D01*
X2186430D01*
X2193540Y4768000D01*
X2199640Y4772450D01*
X2204720Y4778370D01*
G01X2226060Y4839120D02*
X2232150Y4848010D01*
X2239260Y4852460D01*
X2247390Y4853940D01*
X2257550Y4850980D01*
X2264660Y4843570D01*
X2266700Y4834680D01*
X2265680Y4825790D01*
X2261620Y4818380D01*
X2241300Y4803560D01*
X2232150Y4793190D01*
X2226060Y4778370D01*
X2224020Y4765040D01*
X2266700D01*
G01X2463800Y4919980D02*
Y4737100D01*
G01X2321560Y4919980D02*
X2616200D01*
Y4737100D01*
X2306320D01*
Y4919980D01*
X2321560D01*
G01X2196590Y4666190D02*
X2190500Y4670640D01*
X2183380Y4673600D01*
X2175260D01*
X2166110Y4669150D01*
X2159000Y4661750D01*
X2153920Y4652860D01*
X2149850Y4638040D01*
X2148840Y4624700D01*
X2150870Y4611370D01*
X2153920Y4602480D01*
X2160020Y4593590D01*
X2167130Y4587660D01*
X2174240Y4584700D01*
X2181350D01*
X2188460Y4587660D01*
X2194560Y4592110D01*
X2199640Y4598030D01*
G01X2217930Y4602480D02*
X2224020Y4592110D01*
X2232150Y4586180D01*
X2241300Y4584700D01*
X2249420Y4586180D01*
X2257550Y4593590D01*
X2262630Y4602480D01*
X2263650Y4611370D01*
X2261620Y4621740D01*
X2254500Y4629150D01*
X2247390Y4632110D01*
X2238250D01*
G01X2247390D02*
X2253490Y4636560D01*
X2258570Y4643960D01*
X2260600Y4652860D01*
X2258570Y4661750D01*
X2253490Y4669150D01*
X2244340Y4673600D01*
X2235200Y4672120D01*
X2226060Y4666190D01*
G01X2463800Y4716780D02*
Y4533900D01*
G01X2321560Y4716780D02*
X2616200D01*
Y4533900D01*
X2306320D01*
Y4716780D01*
X2321560D01*
G01X2286000Y7477760D02*
X2294890Y7482840D01*
X2300820Y7488940D01*
X2303780Y7496050D01*
X2300820Y7504180D01*
X2294890Y7510270D01*
X2286000Y7516370D01*
X2274150Y7518400D01*
X2214880D01*
G01X2290450Y7541770D02*
X2297850Y7547860D01*
X2302300Y7554980D01*
X2303780Y7564120D01*
X2300820Y7573260D01*
X2294890Y7580380D01*
X2284520Y7585460D01*
X2272670Y7586470D01*
X2260810Y7584440D01*
X2253400Y7579360D01*
X2247480Y7572250D01*
X2246000Y7565140D01*
X2247480Y7558020D01*
X2253400Y7548880D01*
X2214880Y7551930D01*
Y7579360D01*
G01X1917700Y7416800D02*
X1828800D01*
Y7442200D01*
X1833250Y7450330D01*
X1839170Y7455410D01*
X1851030Y7457440D01*
X1862880Y7455410D01*
X1870290Y7449310D01*
X1874730Y7442200D01*
Y7416800D01*
G01Y7442200D02*
X1917700Y7457440D01*
G01X1899920Y7480810D02*
X1910290Y7486900D01*
X1916220Y7495030D01*
X1917700Y7504180D01*
X1916220Y7512300D01*
X1908810Y7520430D01*
X1899920Y7525510D01*
X1891030Y7526530D01*
X1880660Y7524500D01*
X1873250Y7517380D01*
X1870290Y7510270D01*
Y7501130D01*
G01Y7510270D02*
X1865840Y7516370D01*
X1858440Y7521450D01*
X1849540Y7523480D01*
X1840650Y7521450D01*
X1833250Y7516370D01*
X1828800Y7507220D01*
X1830280Y7498080D01*
X1836210Y7488940D01*
G01X1964320Y7385050D02*
Y7067550D01*
G01X1781440Y7385050D02*
X1964320D01*
G01X1781440Y7067550D02*
Y7385050D01*
G01X1964320Y7067550D02*
X1781440D01*
G01X2184400Y7411720D02*
X2095500D01*
Y7437120D01*
X2099950Y7445250D01*
X2105870Y7450330D01*
X2117730Y7452360D01*
X2129580Y7450330D01*
X2136990Y7444230D01*
X2141430Y7437120D01*
Y7411720D01*
G01Y7437120D02*
X2184400Y7452360D01*
G01Y7510270D02*
X2095500D01*
X2159210Y7472680D01*
Y7523480D01*
G01X2227580Y7385050D02*
Y7067550D01*
G01X2044700Y7385050D02*
X2227580D01*
G01X2044700Y7067550D02*
Y7385050D01*
G01X2227580Y7067550D02*
X2044700D01*
G01X1943100Y7800850D02*
X1953470Y7806940D01*
X1959400Y7815070D01*
X1960880Y7824220D01*
X1959400Y7832340D01*
X1951990Y7840470D01*
X1943100Y7845550D01*
X1934210Y7846570D01*
X1923840Y7844540D01*
X1916430Y7837420D01*
X1913470Y7830310D01*
Y7821170D01*
G01Y7830310D02*
X1909020Y7836410D01*
X1901620Y7841490D01*
X1892720Y7843520D01*
X1883830Y7841490D01*
X1876430Y7836410D01*
X1871980Y7827260D01*
X1873460Y7818120D01*
X1879390Y7808980D01*
G01X1871980Y7863840D02*
X1960880Y7889240D01*
X1871980Y7914640D01*
G01X1943100Y7932930D02*
X1953470Y7939020D01*
X1959400Y7947150D01*
X1960880Y7956300D01*
X1959400Y7964420D01*
X1951990Y7972550D01*
X1943100Y7977630D01*
X1934210Y7978650D01*
X1923840Y7976620D01*
X1916430Y7969500D01*
X1913470Y7962390D01*
Y7953250D01*
G01Y7962390D02*
X1909020Y7968490D01*
X1901620Y7973570D01*
X1892720Y7975600D01*
X1883830Y7973570D01*
X1876430Y7968490D01*
X1871980Y7959340D01*
X1873460Y7950200D01*
X1879390Y7941060D01*
G01X3243580Y7470140D02*
X3252470Y7475220D01*
X3258400Y7481320D01*
X3261360Y7488430D01*
X3258400Y7496560D01*
X3252470Y7502650D01*
X3243580Y7508750D01*
X3231730Y7510780D01*
X3172460D01*
G01X3224320Y7537200D02*
X3213950Y7544310D01*
X3208020Y7550400D01*
X3205060Y7558530D01*
X3208020Y7565640D01*
X3213950Y7570720D01*
X3222840Y7574790D01*
X3233210Y7575800D01*
X3242100Y7574790D01*
X3250990Y7570720D01*
X3258400Y7564630D01*
X3261360Y7557520D01*
X3258400Y7549390D01*
X3249510Y7542280D01*
X3236170Y7538210D01*
X3221360Y7537200D01*
X3202100Y7539230D01*
X3191720Y7542280D01*
X3181350Y7547360D01*
X3173940Y7554470D01*
X3172460Y7561580D01*
X3175420Y7568690D01*
X3182830Y7573770D01*
G01X4638040Y3874160D02*
X4549140D01*
Y3899560D01*
X4553590Y3907690D01*
X4559510Y3912770D01*
X4571370Y3914800D01*
X4583220Y3912770D01*
X4590630Y3906670D01*
X4595070Y3899560D01*
Y3874160D01*
G01Y3899560D02*
X4638040Y3914800D01*
G01Y3980840D02*
Y3940200D01*
X4549140D01*
Y3980840D01*
G01X4592110Y3964580D02*
Y3940200D01*
G01X4638040Y4007260D02*
X4549140D01*
Y4045860D01*
G01X4592110Y4031640D02*
Y4007260D01*
G01X4907280Y4069740D02*
X5161280D01*
Y3815740D01*
X4907280D01*
Y4069740D01*
G01X5516880Y4686300D02*
X5525770Y4691380D01*
X5531700Y4697480D01*
X5534660Y4704590D01*
X5531700Y4712720D01*
X5525770Y4718810D01*
X5516880Y4724910D01*
X5505030Y4726940D01*
X5445760D01*
G01X5534660Y4784850D02*
X5445760D01*
X5509470Y4747260D01*
Y4798060D01*
G01X4980940Y6739130D02*
X4892040D01*
Y6759450D01*
X4896490Y6767580D01*
X4902410Y6773670D01*
X4911300Y6778750D01*
X4921680Y6782820D01*
X4936490Y6783830D01*
X4951310Y6782820D01*
X4961680Y6778750D01*
X4970570Y6773670D01*
X4976500Y6767580D01*
X4980940Y6759450D01*
Y6739130D01*
G01Y6807200D02*
X4892040D01*
Y6832600D01*
X4896490Y6840730D01*
X4902410Y6845810D01*
X4914270Y6847840D01*
X4926120Y6845810D01*
X4933530Y6839710D01*
X4937970Y6832600D01*
Y6807200D01*
G01Y6832600D02*
X4980940Y6847840D01*
G01X4892040Y6868160D02*
X4980940Y6893560D01*
X4892040Y6918960D01*
G01X4980940Y6959600D02*
X4892040D01*
X4909820Y6947410D01*
G01X4980940D02*
Y6971790D01*
M02*
