G04 ================== begin FILE IDENTIFICATION RECORD ==================*
G04 Layout Name:  SAMD21_MODULE_v2.brd*
G04 Film Name:    TOP*
G04 File Format:  Gerber RS274X*
G04 File Origin:  Cadence Allegro 16.6-S039*
G04 Origin Date:  Sat Apr 27 10:05:54 2019*
G04 *
G04 Layer:  ETCH/TOP*
G04 Layer:  PIN/TOP*
G04 Layer:  VIA CLASS/TOP*
G04 *
G04 Offset:    (0.0000 0.0000)*
G04 Mirror:    No*
G04 Mode:      Positive*
G04 Rotation:  0*
G04 FullContactRelief:  No*
G04 UndefLineWidth:     0.0000*
G04 ================== end FILE IDENTIFICATION RECORD ====================*
%FSLAX25Y25*MOMM*%
%IR0*IPPOS*OFA0.00000B0.00000*MIA0B0*SFA1.00000B1.00000*%
%ADD13R,.7X1.3*%
%ADD21R,1.3X.7*%
%ADD19R,.95X1.35*%
%ADD15R,1.X1.*%
%ADD14O,1.1X3.*%
%ADD20O,3.X1.1*%
%ADD17R,1.X1.8*%
%ADD16O,1.8X6.*%
%ADD11C,1.*%
%ADD22O,1.8X7.7*%
%ADD10C,1.016*%
%ADD18C,1.27*%
%ADD12R,1.778X1.778*%
%ADD23C,.4*%
%ADD24C,.25*%
%ADD32R,.9544X1.5544*%
%ADD29O,1.6004X3.5004*%
%ADD27O,3.5004X1.6004*%
%ADD26O,2.3004X6.5004*%
%ADD35R,1.2044X1.6044*%
%ADD34C,1.5244*%
%ADD33R,1.2544X2.0544*%
%ADD28O,1.3544X3.2544*%
%ADD30O,2.0544X6.2544*%
%ADD25O,2.0544X7.9544*%
%ADD31R,2.2784X2.2784*%
G75*
%LPD*%
G75*
G36*
G01X2091740Y145310D02*
G02X2084830Y126530I-5112J-8780D01*
G02X345880Y877720I732816J4084781D01*
G02X353600Y895900I6049J8160D01*
G03X109460Y1092160I52809J315673D01*
G02X93360Y1080700I-9425J-3798D01*
G02X67650Y1103260I2724290J3130606D01*
G01Y5034260D01*
X891560D01*
Y6913900D01*
X565180D01*
G02X560300Y6932970I1J10160D01*
G03X357850Y7529960I-153897J280633D01*
G02X350270Y7548170I-1542J10041D01*
G02X838510Y7859000I2467398J-3336826D01*
G02X850540Y7842880I4850J-8929D01*
G01X798140Y7790480D01*
Y7182280D01*
X859220Y7121200D01*
X874940D01*
Y7083700D01*
X912440D01*
Y6992320D01*
X945000Y6959760D01*
Y6932180D01*
G03X902500Y6861500I37522J-70680D01*
G01Y6671500D01*
G03X1062540I80020J0D01*
G01Y6861500D01*
G03X1020500Y6931930I-80016J0D01*
G01Y6990380D01*
X987480Y7023400D01*
Y7083700D01*
X1024980D01*
Y7358740D01*
X987480D01*
Y7420420D01*
G03X891290Y7532130I-37517J64963D01*
G02X873180Y7538460I-7950J6327D01*
G01Y7759400D01*
X950260Y7836480D01*
X1093930D01*
G02X1101120Y7819140I2J-10160D01*
G01X1082620Y7800640D01*
Y7180040D01*
X1141460Y7121200D01*
X1157180D01*
Y7083700D01*
X1194680D01*
Y7033560D01*
X1145000Y6983880D01*
Y6932180D01*
G03X1102500Y6861500I37522J-70680D01*
G01Y6671500D01*
G03X1262540I80020J0D01*
G01Y6861500D01*
G03X1220040Y6932180I-80022J0D01*
G01Y6952800D01*
X1269720Y7002480D01*
Y7083700D01*
X1307220D01*
Y7246200D01*
X1335340D01*
X1434380Y7345240D01*
G02X1451720Y7338050I7180J-7188D01*
G01Y7236280D01*
X1439420D01*
Y7086240D01*
X1589460D01*
Y7123740D01*
X1647160D01*
X1679910Y7090990D01*
X1782860D01*
Y7068490D01*
X1835360D01*
Y6967400D01*
X1806010Y6938050D01*
X1803180Y6938810D01*
G03X1702500Y6861500I-20658J-77310D01*
G01Y6671500D01*
G03X1745000Y6600820I80022J0D01*
G01Y6584580D01*
G03X1820040I37520J-64960D01*
G01Y6600820D01*
G03X1862540Y6671500I-37522J70680D01*
G01Y6861500D01*
G03X1859830Y6882160I-80021J11D01*
G01X1859070Y6884990D01*
X1910400Y6936320D01*
Y7068490D01*
X1962900D01*
Y7188530D01*
X1782860D01*
Y7166030D01*
X1710990D01*
X1678240Y7198780D01*
X1589460D01*
Y7236280D01*
X1577160D01*
Y7348980D01*
X1462650D01*
G02X1455460Y7366320I-2J10160D01*
G01X1486200Y7397060D01*
X2237720D01*
G02X2240540Y7387760I-4J-5079D01*
G03X2232510Y7381570I41682J-62375D01*
G01X2046120D01*
Y7359070D01*
X1962900D01*
Y7381570D01*
X1782860D01*
Y7261530D01*
X1962900D01*
Y7284030D01*
X2046120D01*
Y7261530D01*
X2226160D01*
Y7268630D01*
X2233060D01*
X2234470Y7267470D01*
G03X2304660Y7396940I47715J57893D01*
G02X2300520Y7413810I3043J9690D01*
G01X2540300Y7653600D01*
X4353260D01*
X4367680Y7639180D01*
Y7574340D01*
G03X4330210Y7507250I37519J-64963D01*
G02X4319560Y7496810I-10156J-292D01*
G03X4380890Y7384360I-3632J-74930D01*
G01X4460550D01*
X4530780Y7454590D01*
Y7716820D01*
X4463880Y7783720D01*
X2493580D01*
X2375820Y7665960D01*
G02X2358480Y7673170I-7180J7188D01*
G03X2218500Y7710860I-75019J168D01*
G01X1990180D01*
Y7788360D01*
X1840140D01*
Y7558320D01*
X1990180D01*
Y7635820D01*
X2218500D01*
G03X2283630Y7598320I64963J37519D01*
G02X2290840Y7580980I22J-10160D01*
G01X2232760Y7522900D01*
X1307020D01*
G03X1176670Y7522160I-64964J-37520D01*
G02X1157660Y7527140I-8852J4984D01*
G01Y7769560D01*
X1174580Y7786480D01*
X1440140D01*
Y7558320D01*
X1590180D01*
Y7788360D01*
X1552680D01*
Y7816280D01*
X1549820Y7819140D01*
G02X1557010Y7836480I7188J7180D01*
G01X1635460D01*
X1666240Y7805700D01*
G02X1659050Y7788360I-7188J-7180D01*
G01X1640140D01*
Y7558320D01*
X1790180D01*
Y7788360D01*
X1752680D01*
Y7825380D01*
X1666540Y7911520D01*
X981480D01*
G02X976970Y7930790I-7J10161D01*
G02X2084830Y8296110I1840667J-3719464D01*
G02X2091740Y8277330I1798J-10000D01*
G03X2217640Y7811300I125900J-216009D01*
G01X3444030D01*
G03X3580710Y8270670I0J250019D01*
G02X3588150Y8289160I5553J8507D01*
G02X5293190Y7542100I-770514J-4077834D01*
G02X5284670Y7524090I-6060J-8153D01*
G03X5492140Y7358980I-77665J-310494D01*
G02X5507770Y7371330I9052J4610D01*
G02X5567630Y7319380I-2690035J-3160087D01*
G01Y4592060D01*
G02X5551470Y4583860I-10161J1D01*
G03X5463140Y4460620I-44750J-61200D01*
G02X5464110Y4444770I-5843J-8312D01*
G03Y4350550I42610J-47110D01*
G02X5463140Y4334700I-6813J-7538D01*
G03X5551470Y4211460I43580J-62040D01*
G02X5567630Y4203260I5999J-8201D01*
G01Y1103260D01*
G02X5505400Y1049290I-2750013J3108035D01*
G02X5489840Y1061790I-6581J7742D01*
G03X5064580Y1498210I-282843J149792D01*
G02X5052880Y1514490I-4514J9100D01*
G01X5298890Y1760500D01*
Y4001020D01*
X5386640Y4088770D01*
Y6665830D01*
X5265730Y6786740D01*
X4722580D01*
Y7036720D01*
G03X4492540I-115020J0D01*
G01Y6446720D01*
G03X4722580I115020J0D01*
G01Y6696700D01*
X5228430D01*
X5296600Y6628530D01*
Y4126070D01*
X5253870Y4083340D01*
X5177390Y4159820D01*
X3999550D01*
G03Y4069780I-60010J-45020D01*
G01X5140090D01*
X5144540Y4065330D01*
G02X5140950Y4056660I-3593J-3591D01*
G01X4920360D01*
Y3828820D01*
X5148200D01*
Y4037140D01*
G02X5165540Y4044330I10159J4D01*
G01X5208850Y4001020D01*
Y1797800D01*
X4852390Y1441340D01*
G02X4835190Y1450250I-7188J7180D01*
G03X4836880Y1469880I-113329J19645D01*
G01Y1889880D01*
G03X4606840I-115020J0D01*
G01Y1469880D01*
G03X4741490Y1356550I115018J0D01*
G02X4750400Y1339350I1730J-10012D01*
G01X4627010Y1215960D01*
X2608600D01*
G03Y1125920I-76220J-45020D01*
G01X4664310D01*
X4904090Y1365700D01*
G02X4920370Y1354000I7180J-7186D01*
G03X5289740Y902400I286628J-142419D01*
G02X5298440Y884440I2626J-9815D01*
G02X3588150Y133480I-2480790J3326879D01*
G02X3580710Y151970I-1887J9983D01*
G03X3444030Y611340I-136680J209351D01*
G01X2217640D01*
G03X2091740Y145310I0J-250021D01*
G37*
G36*
G01X67650Y7319380D02*
G02X91830Y7340610I2750152J-3107912D01*
G02X107970Y7329270I6669J-7664D01*
G03X252500Y6932970I298429J-115668D01*
G02X247620Y6913900I-4881J-8910D01*
G01X67650D01*
Y7319380D01*
G37*
G36*
G01X1324560Y7341540D02*
G02X1307220Y7348730I-7180J7188D01*
G01Y7358740D01*
X1157660D01*
Y7443620D01*
G02X1176670Y7448600I10158J-4D01*
G03X1307020Y7447860I65386J36780D01*
G01X1406350D01*
G02X1413540Y7430520I2J-10160D01*
G01X1324560Y7341540D01*
G37*
G36*
G01X3313520Y91050D02*
G02X2321760I-495880J4120264D01*
G02X2322970Y111300I1205J10089D01*
G01X3312310D01*
G02X3313520Y91050I5J-10161D01*
G37*
G36*
G01X2321760Y8331590D02*
G02X3313520I495880J-4120264D01*
G02X3312310Y8311340I-1205J-10089D01*
G01X2322970D01*
G02X2321760Y8331590I-5J10161D01*
G37*
%LPC*%
G75*
G36*
G01X4666860Y2032360D02*
G02X4516840Y2182380I0J150020D01*
G01Y2882380D01*
G02X4666860Y3032400I150020J0D01*
G01X4866860D01*
G02X5016880Y2882380I0J-150020D01*
G01Y2182380D01*
G02X4866860Y2032360I-150020J0D01*
G01X4666860D01*
G37*
G36*
G01X2062540Y6671500D02*
G02X2020040Y6600820I-80022J0D01*
G01Y6487400D01*
G02X1945000I-37520J-64960D01*
G01Y6600820D01*
G02X1902500Y6671500I37522J70680D01*
G01Y6861500D01*
G02X2003180Y6938810I80022J0D01*
G01X2006010Y6938050D01*
X2098620Y7030660D01*
Y7068490D01*
X2046120D01*
Y7188530D01*
X2226160D01*
Y7068490D01*
X2173660D01*
Y6999580D01*
X2059070Y6884990D01*
X2059830Y6882160D01*
G02X2062540Y6861500I-77311J-20649D01*
G01Y6671500D01*
G37*
G36*
G01X1420040Y6450960D02*
X1419280Y6450200D01*
Y6277800D01*
G02X1344240I-37520J-64960D01*
G01Y6481280D01*
X1345000Y6482040D01*
Y6600820D01*
G02X1302500Y6671500I37522J70680D01*
G01Y6861500D01*
G02X1462540I80020J0D01*
G01Y6671500D01*
G02X1420040Y6600820I-80022J0D01*
G01Y6450960D01*
G37*
G36*
G01X3264660Y6446720D02*
G02X3187160Y6337990I-115022J0D01*
G01Y6190300D01*
G02X3112120I-37520J-64960D01*
G01Y6337990D01*
G02X3034620Y6446720I37522J108730D01*
G01Y7036720D01*
G02X3264660I115020J0D01*
G01Y6446720D01*
G37*
G36*
G01X1662540Y6671500D02*
G02X1620040Y6600820I-80022J0D01*
G01Y6190300D01*
G02X1545000I-37520J-64960D01*
G01Y6600820D01*
G02X1502500Y6671500I37522J70680D01*
G01Y6861500D01*
G02X1662540I80020J0D01*
G01Y6671500D01*
G37*
G36*
G01X3584660Y6446720D02*
G02X3507160Y6337990I-115022J0D01*
G01Y6102800D01*
G02X3432120I-37520J-64960D01*
G01Y6337990D01*
G02X3354620Y6446720I37522J108730D01*
G01Y7036720D01*
G02X3584660I115020J0D01*
G01Y6446720D01*
G37*
G36*
G01X3838660D02*
G02X3761160Y6337990I-115022J0D01*
G01Y6015300D01*
G02X3686120I-37520J-64960D01*
G01Y6337990D01*
G02X3608620Y6446720I37522J108730D01*
G01Y7036720D01*
G02X3838660I115020J0D01*
G01Y6446720D01*
G37*
G36*
G01X2021000Y5972880D02*
Y5751920D01*
X2020040Y5750960D01*
Y5332180D01*
G02X2062540Y5261500I-37522J-70680D01*
G01Y5071500D01*
G02X1902500I-80020J0D01*
G01Y5261500D01*
G02X1945000Y5332180I80022J0D01*
G01Y5782040D01*
X1945960Y5783000D01*
Y5972880D01*
G02X2021000I37520J64960D01*
G37*
G36*
G01X1821480Y5885380D02*
Y5752400D01*
X1820040Y5750960D01*
Y5332180D01*
G02X1862540Y5261500I-37522J-70680D01*
G01Y5071500D01*
G02X1702500I-80020J0D01*
G01Y5261500D01*
G02X1745000Y5332180I80022J0D01*
G01Y5782040D01*
X1746440Y5783480D01*
Y5885380D01*
G02X1821480I37520J64960D01*
G37*
G36*
G01X1433150Y5009540D02*
G03X1432400Y4994480I6430J-7869D01*
G01X1500560Y4926320D01*
Y4880460D01*
X1523060D01*
Y4700420D01*
X1403020D01*
Y4880460D01*
X1425520D01*
Y4895240D01*
X1345000Y4975760D01*
Y5000820D01*
G02X1302500Y5071500I37522J70680D01*
G01Y5261500D01*
G02X1462540I80020J0D01*
G01Y5071500D01*
G02X1433150Y5009540I-80007J0D01*
G37*
G36*
G01X796660Y4752920D02*
Y4700420D01*
X676620D01*
Y4880460D01*
X796660D01*
Y4827960D01*
X846780D01*
Y4880460D01*
X869280D01*
Y4907600D01*
X934420Y4972740D01*
X1117300D01*
X1136250Y4991690D01*
G03X1135090Y5007050I-7187J7181D01*
G02X1102500Y5071500I47433J64450D01*
G01Y5261500D01*
G02X1262540I80020J0D01*
G01Y5071500D01*
G02X1220040Y5000820I-80022J0D01*
G01Y4969360D01*
X1148380Y4897700D01*
X965500D01*
X956930Y4889130D01*
G03X960530Y4880460I3595J-3590D01*
G01X966820D01*
Y4700420D01*
X846780D01*
Y4752920D01*
X796660D01*
G37*
G36*
G01X2804880Y3639880D02*
Y3219880D01*
G02X2574840I-115020J0D01*
G01Y3639880D01*
G02X2652340Y3748610I115022J0D01*
G01Y3886500D01*
X2735280Y3969440D01*
X4402900D01*
G02Y3894400I64960J-37520D01*
G01X2766360D01*
X2727380Y3855420D01*
Y3748610D01*
G02X2804880Y3639880I-37522J-108730D01*
G37*
G36*
G01X2296880Y3219880D02*
G02X2219380Y3111150I-115022J0D01*
G01Y2914580D01*
G02X2144340I-37520J-64960D01*
G01Y3111150D01*
G02X2066840Y3219880I37522J108730D01*
G01Y3639880D01*
G02X2296880I115020J0D01*
G01Y3219880D01*
G37*
G36*
G01X2042880D02*
G02X1965380Y3111150I-115022J0D01*
G01Y2827080D01*
G02X1890340I-37520J-64960D01*
G01Y3111150D01*
G02X1812840Y3219880I37522J108730D01*
G01Y3639880D01*
G02X2042880I115020J0D01*
G01Y3219880D01*
G37*
G36*
G01X1788880D02*
G02X1711380Y3111150I-115022J0D01*
G01Y2739580D01*
G02X1636340I-37520J-64960D01*
G01Y3111150D01*
G02X1558840Y3219880I37522J108730D01*
G01Y3639880D01*
G02X1788880I115020J0D01*
G01Y3219880D01*
G37*
G36*
G01X2144340Y1998610D02*
Y2055940D01*
G02X2219380I37520J64960D01*
G01Y1998610D01*
G02X2296880Y1889880I-37522J-108730D01*
G01Y1469880D01*
G02X2066840I-115020J0D01*
G01Y1889880D01*
G02X2144340Y1998610I115022J0D01*
G37*
G36*
G01X2452200Y808460D02*
G02Y733420I80180J-37520D01*
G01X1486820D01*
X1382340Y837900D01*
Y1361150D01*
G02X1304840Y1469880I37522J108730D01*
G01Y1642360D01*
X649000D01*
X506080Y1785280D01*
Y2350620D01*
G02X486720Y2464500I37519J64964D01*
G03X479020Y2481280I-7704J6621D01*
G01X236800D01*
X125040Y2593040D01*
Y4202770D01*
G02X118980Y4330700I37520J65886D01*
G03X119950Y4346550I-5843J8312D01*
G02Y4440770I42610J47110D01*
G03X118980Y4456620I-6813J7538D01*
G02X206140I43580J62040D01*
G03X205170Y4440770I5843J-8312D01*
G02Y4346550I-42610J-47110D01*
G03X206140Y4330700I6813J-7538D01*
G02X200080Y4202770I-43580J-62044D01*
G01Y2624120D01*
X267880Y2556320D01*
X499080D01*
G03X504390Y2575140I0J10159D01*
G02X506080Y2704060I39210J63957D01*
G01Y4700420D01*
X483580D01*
Y4880460D01*
X603620D01*
Y4700420D01*
X581120D01*
Y4586630D01*
G03X597400Y4578520I10160J-1D01*
G02X707580Y4556180I45218J-59860D01*
G01X1147780D01*
X1232480Y4640880D01*
Y4700420D01*
X1209980D01*
Y4880460D01*
X1330020D01*
Y4700420D01*
X1307520D01*
Y4662860D01*
X2310000D01*
Y4717860D01*
X2345000D01*
Y4736020D01*
X2310000D01*
Y4921060D01*
X2345000D01*
Y5000820D01*
G02X2302500Y5071500I37522J70680D01*
G01Y5261500D01*
G02X2462540I80020J0D01*
G01Y5071500D01*
G02X2420040Y5000820I-80022J0D01*
G01Y4921060D01*
X2455040D01*
Y4736020D01*
X2420040D01*
Y4717860D01*
X2455040D01*
Y4532820D01*
X2310000D01*
Y4587820D01*
X1447780D01*
G03X1440390Y4570690I2J-10160D01*
G02X1428820Y4456620I-55151J-52028D01*
G03X1427850Y4440770I5843J-8312D01*
G02Y4346550I-42610J-47110D01*
G03X1428820Y4330700I6813J-7538D01*
G02X1341660I-43580J-62040D01*
G03X1342630Y4346550I-5843J8312D01*
G02Y4440770I42610J47110D01*
G03X1341660Y4456620I-6813J7538D01*
G02X1330090Y4570690I43581J62042D01*
G03X1322700Y4587820I-7392J6970D01*
G01X1285540D01*
X1216380Y4518660D01*
X1292280Y4442760D01*
Y4191300D01*
X1336340Y4147240D01*
X3695400D01*
X3749520Y4201360D01*
G03X3740820Y4218590I-7184J7184D01*
G02X3608620Y4332320I-17180J113730D01*
G01Y4922320D01*
G02X3686120Y5031050I115022J0D01*
G01Y5423200D01*
X3760500Y5497580D01*
G03X3753310Y5514920I-7188J7180D01*
G01X3561380D01*
X3507160Y5460700D01*
Y5031050D01*
G02X3584660Y4922320I-37522J-108730D01*
G01Y4332320D01*
G02X3354620I-115020J0D01*
G01Y4922320D01*
G02X3432120Y5031050I115022J0D01*
G01Y5491780D01*
X3509840Y5569500D01*
G03X3502650Y5586840I-7188J7180D01*
G01X3262460D01*
X3187160Y5511540D01*
Y5031050D01*
G02X3264660Y4922320I-37522J-108730D01*
G01Y4332320D01*
G02X3034620I-115020J0D01*
G01Y4922320D01*
G02X3112120Y5031050I115022J0D01*
G01Y5542620D01*
X3189000Y5619500D01*
G03X3181810Y5636840I-7188J7180D01*
G01X3007660D01*
X2933160Y5562340D01*
Y5031050D01*
G02X3010660Y4922320I-37522J-108730D01*
G01Y4332320D01*
G02X2780620I-115020J0D01*
G01Y4922320D01*
G02X2858120Y5031050I115022J0D01*
G01Y5593420D01*
X2976580Y5711880D01*
X3926940D01*
X3929960Y5714900D01*
Y7338160D01*
X3926940Y7341180D01*
X3094020D01*
X3060660Y7307820D01*
Y7279490D01*
G02X2968030Y7161530I-37520J-65886D01*
G03X2953250I-7390J-6975D01*
G02X2946900Y7155540I-55115J52066D01*
G03X2948740Y7138750I6534J-7780D01*
G02X3010660Y7036720I-53101J-102030D01*
G01Y6446720D01*
G02X2933160Y6337990I-115022J0D01*
G01Y6277800D01*
G02X2858120I-37520J-64960D01*
G01Y6337990D01*
G02X2780620Y6446720I37522J108730D01*
G01Y7036720D01*
G02X2845440Y7140210I115025J0D01*
G03X2847760Y7156940I-4434J9141D01*
G02X2860620Y7279490I50380J56663D01*
G01Y7389160D01*
X2895300Y7423840D01*
G03X2888110Y7441180I-7188J7180D01*
G01X2655740D01*
X2618700Y7404140D01*
Y7279490D01*
G02X2526070Y7161530I-37520J-65886D01*
G03X2511290I-7390J-6975D01*
G02X2418660Y7279490I-55110J52074D01*
G01Y7457740D01*
X2527140Y7566220D01*
X4020180D01*
X4155000Y7431400D01*
Y5621660D01*
X3987300Y5453960D01*
X3823000D01*
X3761160Y5392120D01*
Y5031050D01*
G02X3838660Y4922320I-37522J-108730D01*
G01Y4332320D01*
G02X3837370Y4315140I-115020J-2D01*
G03X3854600Y4306440I10046J-1516D01*
G01X3858340Y4310180D01*
X4576000D01*
G02X4603440Y4337620I64960J-37520D01*
G01Y4674300D01*
G02X4678480I37520J64960D01*
G01Y4337620D01*
G02X4576000Y4235140I-37520J-64960D01*
G01X3889420D01*
X3726480Y4072200D01*
X1305260D01*
X1217240Y4160220D01*
Y4411680D01*
X1147780Y4481140D01*
X707580D01*
G02X597400Y4458800I-64962J37520D01*
G03X581120Y4450690I-6120J-8109D01*
G01Y2704060D01*
G02X582810Y2575140I-37520J-64963D01*
G03X588120Y2556320I5310J-8661D01*
G01X3595460D01*
X3668340Y2629200D01*
Y3111150D01*
G02X3590840Y3219880I37522J108730D01*
G01Y3639880D01*
G02X3820880I115020J0D01*
G01Y3219880D01*
G02X3743380Y3111150I-115022J0D01*
G01Y2598120D01*
X3626540Y2481280D01*
X608180D01*
G03X600480Y2464500I4J-10159D01*
G02X581120Y2350620I-56879J-48916D01*
G01Y1816360D01*
X680080Y1717400D01*
X1304840D01*
Y1889880D01*
G02X1534880I115020J0D01*
G01Y1469880D01*
G02X1457380Y1361150I-115022J0D01*
G01Y868980D01*
X1517900Y808460D01*
X2452200D01*
G37*
G54D32*
X1099840Y4790440D03*
G54D29*
X2182520Y5166500D03*
X1582520D03*
X982520D03*
G54D27*
X2547520Y6466000D03*
Y6266000D03*
Y6066000D03*
Y5866000D03*
Y5666000D03*
Y5466000D03*
G54D26*
X4213860Y3429880D03*
X4467860D03*
X4721860D03*
X4467860Y1679880D03*
X4213860D03*
X3451860Y3429880D03*
X3959860D03*
Y1679880D03*
X3705860D03*
X3451860D03*
X2943860Y3429880D03*
X3197860D03*
Y1679880D03*
X2943860D03*
X2689860D03*
X2435860Y3429880D03*
Y1679880D03*
X1927860D03*
G54D35*
X2545080Y4625340D03*
Y4828540D03*
G54D34*
X2532380Y970940D03*
G54D33*
X1315160Y7673340D03*
G54D28*
X2182520Y6766500D03*
X2382520D03*
G54D30*
X1419860Y3429880D03*
X1673860Y1679880D03*
G54D25*
X4287560Y6741720D03*
G54D31*
X833120Y3942740D03*
%LPD*%
G75*
G36*
G01X2493700Y7279490D02*
Y7426660D01*
X2558220Y7491180D01*
X2575090D01*
G02X2582280Y7473840I2J-10160D01*
G01X2543660Y7435220D01*
Y7279490D01*
G03X2526070Y7265670I37535J-65878D01*
G02X2511290I-7390J6975D01*
G03X2493700Y7279490I-55125J-52058D01*
G37*
G36*
G01X2968760Y7391180D02*
X3013370D01*
G02X3020560Y7373840I2J-10160D01*
G01X2985620Y7338900D01*
Y7279490D01*
G03X2968030Y7265670I37535J-65878D01*
G02X2953250I-7390J6975D01*
G03X2935660Y7279490I-55125J-52058D01*
G01Y7358080D01*
X2968760Y7391180D01*
G37*
G54D10*
X162560Y4268660D03*
Y4393660D03*
Y4518660D03*
X1385240Y4268660D03*
Y4393660D03*
Y4518660D03*
X2581180Y7213600D03*
X2456180D03*
X3023140D03*
X2898140D03*
X5506720Y4522660D03*
Y4397660D03*
Y4272660D03*
G54D11*
X543600Y2415580D03*
Y2639100D03*
X642620Y4518660D03*
X949960Y7485380D03*
X1673860Y2674620D03*
X1783960Y5950340D03*
X1381760Y6212840D03*
X1582520Y6125340D03*
X1782520Y6519620D03*
X1242060Y7485380D03*
X2181860Y2120900D03*
X1927860Y2762120D03*
X2181860Y2849620D03*
X1983480Y6037840D03*
X1982520Y6422440D03*
X2283460Y7673340D03*
X2282190Y7325360D03*
X2895640Y6212840D03*
X3149640Y6125340D03*
X3939540Y4114800D03*
X3469640Y6037840D03*
X3723640Y5950340D03*
X4467860Y3931920D03*
X4640960Y4739260D03*
Y4272660D03*
X4315930Y7421880D03*
X4405200Y7509380D03*
G54D20*
X2547520Y5466000D03*
Y6266000D03*
Y6066000D03*
Y5866000D03*
Y5666000D03*
Y6466000D03*
G54D12*
X833120Y3942740D03*
X5034280D03*
G54D21*
X1872880Y7321550D03*
Y7128510D03*
X2136140Y7321550D03*
Y7128510D03*
G54D22*
X2895640Y4627320D03*
X3149640D03*
X2895640Y6741720D03*
X3149640D03*
X3469640Y4627320D03*
X3723640D03*
X3469640Y6741720D03*
X3723640D03*
X4287560D03*
X4607560D03*
G54D13*
X736640Y4790440D03*
X543600D03*
X906800D03*
X1463040D03*
X1270000D03*
X1099840D03*
G54D23*
G01X5253870Y4019670D02*
Y1779150D01*
X4645660Y1170940D01*
X2532380D01*
G01X3939540Y4114800D02*
X5158740D01*
X5253870Y4019670D01*
G01D02*
X5341620Y4107420D01*
Y6647180D01*
X5247080Y6741720D01*
X4607560D01*
G54D14*
X982520Y5166500D03*
Y6766500D03*
X1182520Y5166500D03*
X1382520D03*
X1582520D03*
X1782520D03*
X1182520Y6766500D03*
X1782520D03*
X1582520D03*
X1382520D03*
X1982520Y5166500D03*
X2182520D03*
X2382520D03*
X2182520Y6766500D03*
X1982520D03*
X2382520D03*
G54D24*
G01X3705860Y3429880D02*
Y2613660D01*
X3611000Y2518800D01*
X252340D01*
X162560Y2608580D01*
Y4268660D01*
G01X93960Y4393660D02*
X162560D01*
G01D02*
X231160D01*
G01X1419860Y1679880D02*
X664540D01*
X543600Y1800820D01*
Y2415580D01*
G01Y4790440D02*
Y2639100D01*
G01X1163320Y4518660D02*
X642620D01*
G01X736640Y4790440D02*
X906800D01*
G01D02*
Y4892060D01*
X949960Y4935220D01*
X1132840D01*
X1182520Y4984900D01*
Y5166500D01*
G01X982520Y6766500D02*
Y6941700D01*
X982980Y6942160D01*
Y6974840D01*
X949960Y7007860D01*
Y7158720D01*
G01D02*
X874760D01*
X835660Y7197820D01*
Y7774940D01*
X934720Y7874000D01*
X1651000D01*
X1715160Y7809840D01*
Y7673340D01*
G01X949960Y7283720D02*
Y7485380D01*
G01X1419860Y1679880D02*
Y853440D01*
X1502360Y770940D01*
X2532380D01*
G01X1673860Y1362080D02*
Y1679880D01*
G01D02*
Y1997680D01*
G01X1566060Y1679880D02*
X1673860D01*
G01D02*
X1781660D01*
G01X1673860Y3429880D02*
Y2674620D01*
G01X1419860Y3112080D02*
Y3429880D01*
G01D02*
Y3747680D01*
G01X1312060Y3429880D02*
X1419860D01*
G01D02*
X1527660D01*
G01X1163320Y4518660D02*
X1254760Y4427220D01*
Y4175760D01*
X1320800Y4109720D01*
X3710940D01*
X3873880Y4272660D01*
X4640960D01*
G01X1270000Y4790440D02*
Y4625340D01*
G01D02*
X1163320Y4518660D01*
G01X2382520Y4625340D02*
X1270000D01*
G01X1316640Y4393660D02*
X1385240D01*
G01D02*
X1453840D01*
G01X1099840Y4707640D02*
Y4790440D01*
G01D02*
Y4873240D01*
G01X1047040Y4790440D02*
X1099840D01*
G01D02*
X1152640D01*
G01X1463040D02*
Y4910780D01*
X1382520Y4991300D01*
Y5166500D01*
G01X1783960Y5950340D02*
Y5767940D01*
X1782520Y5766500D01*
Y5166500D01*
G01X1381760Y6212840D02*
Y6465740D01*
X1382520Y6466500D01*
Y6766500D01*
G01X1582520Y6125340D02*
Y6766500D01*
G01X1872880Y7128510D02*
Y6951860D01*
X1782520Y6861500D01*
Y6766500D01*
G01X1232200Y7158720D02*
Y7018020D01*
X1182520Y6968340D01*
Y6766500D01*
G01X1514440Y7161260D02*
X1662700D01*
X1695450Y7128510D01*
X1872880D01*
G01X1514440Y7286260D02*
Y7354060D01*
G01X1446640Y7286260D02*
X1514440D01*
G01D02*
X1582240D01*
G01X1315160Y7565540D02*
Y7673340D01*
G01X1247360D02*
X1315160D01*
G01D02*
X1382960D01*
G01X1232200Y7158720D02*
X1157000D01*
X1120140Y7195580D01*
Y7785100D01*
X1159040Y7824000D01*
X1491900D01*
X1515160Y7800740D01*
Y7673340D01*
G01X4315930Y7421880D02*
X4445010D01*
X4493260Y7470130D01*
Y7701280D01*
X4448340Y7746200D01*
X2509120D01*
X2248300Y7485380D01*
X1242060D01*
G01X1232200Y7283720D02*
X1319800D01*
X1470660Y7434580D01*
X2268220D01*
X2524760Y7691120D01*
X4368800D01*
X4405200Y7654720D01*
Y7509380D01*
G01X2532380Y889640D02*
Y970940D01*
G01X2181860Y1679880D02*
Y2120900D01*
G01X2532380Y970940D02*
Y1052240D01*
G01X2451080Y970940D02*
X2532380D01*
G01D02*
X2613680D01*
G01X1927860Y3429880D02*
Y2762120D01*
G01X2181860Y3429880D02*
Y2849620D01*
G01X2382520Y4828540D02*
Y4625340D01*
G01X2479780D02*
X2545080D01*
G01X1983480Y6037840D02*
Y5767460D01*
X1982520Y5766500D01*
Y5166500D01*
G01X2382520D02*
Y4828540D01*
G01X2479780D02*
X2545080D01*
G01X1782520Y6766500D02*
Y6519620D01*
G01X2182520Y6598700D02*
Y6766500D01*
G01D02*
Y6934300D01*
G01X2109720Y6766500D02*
X2182520D01*
G01D02*
X2255320D01*
G01X2382520Y6598700D02*
Y6766500D01*
G01D02*
Y6934300D01*
G01X2309720Y6766500D02*
X2382520D01*
G01D02*
X2455320D01*
G01X1982520D02*
Y6422440D01*
G01X2136140Y7128510D02*
Y7015120D01*
X1982520Y6861500D01*
Y6766500D01*
G01X2136140Y7321550D02*
X1872880D01*
G01X2283460Y7673340D02*
X1915160D01*
G01X2136140Y7321550D02*
X2278380D01*
X2282190Y7325360D01*
G01X3723640Y4627320D02*
Y5407660D01*
X3807460Y5491480D01*
X3971760D01*
X4117480Y5637200D01*
Y7415860D01*
X4004640Y7528700D01*
X2542680D01*
X2456180Y7442200D01*
Y7213600D01*
G01X4467860Y3931920D02*
X2750820D01*
X2689860Y3870960D01*
Y3429880D01*
G01X2545080Y4743240D02*
Y4828540D01*
G01Y4540040D02*
Y4625340D01*
G01D02*
Y4710640D01*
G01Y4625340D02*
X2610380D01*
G01X3149640Y4627320D02*
Y5527080D01*
X3246920Y5624360D01*
X3963200D01*
X4017480Y5678640D01*
Y7374420D01*
X3963200Y7428700D01*
X2953220D01*
X2898140Y7373620D01*
Y7213600D01*
G01X2895640Y4627320D02*
Y5577880D01*
X2992120Y5674360D01*
X3942480D01*
X3967480Y5699360D01*
Y7353700D01*
X3942480Y7378700D01*
X3078480D01*
X3023140Y7323360D01*
Y7213600D01*
G01X2545080Y4828540D02*
Y4913840D01*
G01Y4828540D02*
X2610380D01*
G01X2895640Y6741720D02*
Y6212840D01*
G01X3149640Y6741720D02*
Y6125340D01*
G01X3469640Y4627320D02*
Y5476240D01*
X3545840Y5552440D01*
X3962000D01*
X4067480Y5657920D01*
Y7395140D01*
X3983920Y7478700D01*
X2640200D01*
X2581180Y7419680D01*
Y7213600D01*
G01X3469640Y6741720D02*
Y6037840D01*
G01X3723640Y6741720D02*
Y5950340D01*
G01X4640960Y4272660D02*
Y4739260D01*
G01X4287560Y6338920D02*
Y6741720D01*
G01D02*
Y7144520D01*
G01X4179760Y6741720D02*
X4287560D01*
G01D02*
X4395360D01*
G01X5416200Y4397660D02*
X5415280Y4396740D01*
G01X5506720Y4397660D02*
X5416200D01*
G54D15*
X949960Y7283720D03*
Y7158720D03*
X1232200Y7283720D03*
Y7158720D03*
X1514440Y7161260D03*
Y7286260D03*
G54D16*
X1673860Y1679880D03*
X1419860D03*
Y3429880D03*
X1673860D03*
X2435860Y1679880D03*
X2181860D03*
X1927860D03*
Y3429880D03*
X2181860D03*
X2435860D03*
X3197860Y1679880D03*
X2943860D03*
X2689860D03*
Y3429880D03*
X2943860D03*
X3197860D03*
X3959860Y1679880D03*
X3705860D03*
X3451860D03*
Y3429880D03*
X3705860D03*
X3959860D03*
X4721860Y1679880D03*
X4467860D03*
X4213860D03*
Y3429880D03*
X4467860D03*
X4721860D03*
G54D17*
X1315160Y7673340D03*
X1515160D03*
X1715160D03*
X1915160D03*
G54D18*
X2532380Y770940D03*
Y970940D03*
Y1170940D03*
G54D19*
X2545080Y4625340D03*
X2382520D03*
X2545080Y4828540D03*
X2382520D03*
M02*
